<?xml version="1.0" encoding="utf-8" standalone="no"?>
<!DOCTYPE svg PUBLIC "-//W3C//DTD SVG 1.1//EN"
  "http://www.w3.org/Graphics/SVG/1.1/DTD/svg11.dtd">
<svg xmlns:xlink="http://www.w3.org/1999/xlink" width="349.2pt" height="576.1725pt" viewBox="0 0 349.2 576.1725" xmlns="http://www.w3.org/2000/svg" version="1.1">
 <metadata>
  <rdf:RDF xmlns:dc="http://purl.org/dc/elements/1.1/" xmlns:cc="http://creativecommons.org/ns#" xmlns:rdf="http://www.w3.org/1999/02/22-rdf-syntax-ns#">
   <cc:Work>
    <dc:type rdf:resource="http://purl.org/dc/dcmitype/StillImage"/>
    <dc:date>2025-04-21T18:34:44.052729</dc:date>
    <dc:format>image/svg+xml</dc:format>
    <dc:creator>
     <cc:Agent>
      <dc:title>Matplotlib v3.9.0, https://matplotlib.org/</dc:title>
     </cc:Agent>
    </dc:creator>
   </cc:Work>
  </rdf:RDF>
 </metadata>
 <defs>
  <style type="text/css">*{stroke-linejoin: round; stroke-linecap: butt}</style>
 </defs>
 <g id="figure_1">
  <g id="patch_1">
   <path d="M 0 576.1725 
L 349.2 576.1725 
L 349.2 0 
L 0 0 
z
" style="fill: #ffffff"/>
  </g>
  <g id="axes_1">
   <g id="table_1">
    <g id="patch_2">
     <path d="M 83.961375 52.0125 
L 178.003875 52.0125 
L 178.003875 37.6125 
L 83.961375 37.6125 
z
" style="fill: #000080; stroke: #000000; stroke-linejoin: miter"/>
    </g>
    <g id="text_1">
     <!-- Estado -->
     <g style="fill: #ffffff" transform="translate(110.980125 47.923125) scale(0.12 -0.12)">
      <defs>
       <path id="Arial-BoldMT-45" d="M 466 0 
L 466 4581 
L 3863 4581 
L 3863 3806 
L 1391 3806 
L 1391 2791 
L 3691 2791 
L 3691 2019 
L 1391 2019 
L 1391 772 
L 3950 772 
L 3950 0 
L 466 0 
z
" transform="scale(0.015625)"/>
       <path id="Arial-BoldMT-73" d="M 150 947 
L 1031 1081 
Q 1088 825 1259 692 
Q 1431 559 1741 559 
Q 2081 559 2253 684 
Q 2369 772 2369 919 
Q 2369 1019 2306 1084 
Q 2241 1147 2013 1200 
Q 950 1434 666 1628 
Q 272 1897 272 2375 
Q 272 2806 612 3100 
Q 953 3394 1669 3394 
Q 2350 3394 2681 3172 
Q 3013 2950 3138 2516 
L 2309 2363 
Q 2256 2556 2107 2659 
Q 1959 2763 1684 2763 
Q 1338 2763 1188 2666 
Q 1088 2597 1088 2488 
Q 1088 2394 1175 2328 
Q 1294 2241 1995 2081 
Q 2697 1922 2975 1691 
Q 3250 1456 3250 1038 
Q 3250 581 2869 253 
Q 2488 -75 1741 -75 
Q 1063 -75 667 200 
Q 272 475 150 947 
z
" transform="scale(0.015625)"/>
       <path id="Arial-BoldMT-74" d="M 1981 3319 
L 1981 2619 
L 1381 2619 
L 1381 1281 
Q 1381 875 1398 808 
Q 1416 741 1477 697 
Q 1538 653 1625 653 
Q 1747 653 1978 738 
L 2053 56 
Q 1747 -75 1359 -75 
Q 1122 -75 931 4 
Q 741 84 652 211 
Q 563 338 528 553 
Q 500 706 500 1172 
L 500 2619 
L 97 2619 
L 97 3319 
L 500 3319 
L 500 3978 
L 1381 4491 
L 1381 3319 
L 1981 3319 
z
" transform="scale(0.015625)"/>
       <path id="Arial-BoldMT-61" d="M 1116 2306 
L 319 2450 
Q 453 2931 781 3162 
Q 1109 3394 1756 3394 
Q 2344 3394 2631 3255 
Q 2919 3116 3036 2902 
Q 3153 2688 3153 2116 
L 3144 1091 
Q 3144 653 3186 445 
Q 3228 238 3344 0 
L 2475 0 
Q 2441 88 2391 259 
Q 2369 338 2359 363 
Q 2134 144 1878 34 
Q 1622 -75 1331 -75 
Q 819 -75 523 203 
Q 228 481 228 906 
Q 228 1188 362 1408 
Q 497 1628 739 1745 
Q 981 1863 1438 1950 
Q 2053 2066 2291 2166 
L 2291 2253 
Q 2291 2506 2166 2614 
Q 2041 2722 1694 2722 
Q 1459 2722 1328 2630 
Q 1197 2538 1116 2306 
z
M 2291 1594 
Q 2122 1538 1756 1459 
Q 1391 1381 1278 1306 
Q 1106 1184 1106 997 
Q 1106 813 1243 678 
Q 1381 544 1594 544 
Q 1831 544 2047 700 
Q 2206 819 2256 991 
Q 2291 1103 2291 1419 
L 2291 1594 
z
" transform="scale(0.015625)"/>
       <path id="Arial-BoldMT-64" d="M 3503 0 
L 2688 0 
L 2688 488 
Q 2484 203 2207 64 
Q 1931 -75 1650 -75 
Q 1078 -75 670 386 
Q 263 847 263 1672 
Q 263 2516 659 2955 
Q 1056 3394 1663 3394 
Q 2219 3394 2625 2931 
L 2625 4581 
L 3503 4581 
L 3503 0 
z
M 1159 1731 
Q 1159 1200 1306 963 
Q 1519 619 1900 619 
Q 2203 619 2415 876 
Q 2628 1134 2628 1647 
Q 2628 2219 2422 2470 
Q 2216 2722 1894 2722 
Q 1581 2722 1370 2473 
Q 1159 2225 1159 1731 
z
" transform="scale(0.015625)"/>
       <path id="Arial-BoldMT-6f" d="M 256 1706 
Q 256 2144 472 2553 
Q 688 2963 1083 3178 
Q 1478 3394 1966 3394 
Q 2719 3394 3200 2905 
Q 3681 2416 3681 1669 
Q 3681 916 3195 420 
Q 2709 -75 1972 -75 
Q 1516 -75 1102 131 
Q 688 338 472 736 
Q 256 1134 256 1706 
z
M 1156 1659 
Q 1156 1166 1390 903 
Q 1625 641 1969 641 
Q 2313 641 2545 903 
Q 2778 1166 2778 1666 
Q 2778 2153 2545 2415 
Q 2313 2678 1969 2678 
Q 1625 2678 1390 2415 
Q 1156 2153 1156 1659 
z
" transform="scale(0.015625)"/>
      </defs>
      <use xlink:href="#Arial-BoldMT-45"/>
      <use xlink:href="#Arial-BoldMT-73" x="66.699219"/>
      <use xlink:href="#Arial-BoldMT-74" x="122.314453"/>
      <use xlink:href="#Arial-BoldMT-61" x="155.615234"/>
      <use xlink:href="#Arial-BoldMT-64" x="211.230469"/>
      <use xlink:href="#Arial-BoldMT-6f" x="272.314453"/>
     </g>
    </g>
    <g id="patch_3">
     <path d="M 178.003875 52.0125 
L 265.238625 52.0125 
L 265.238625 37.6125 
L 178.003875 37.6125 
z
" style="fill: #000080; stroke: #000000; stroke-linejoin: miter"/>
    </g>
    <g id="text_2">
     <!-- venta_actual -->
     <g style="fill: #ffffff" transform="translate(185.273438 47.920312) scale(0.12 -0.12)">
      <defs>
       <path id="Arial-BoldMT-76" d="M 1372 0 
L 34 3319 
L 956 3319 
L 1581 1625 
L 1763 1059 
Q 1834 1275 1853 1344 
Q 1897 1484 1947 1625 
L 2578 3319 
L 3481 3319 
L 2163 0 
L 1372 0 
z
" transform="scale(0.015625)"/>
       <path id="Arial-BoldMT-65" d="M 2381 1056 
L 3256 909 
Q 3088 428 2723 176 
Q 2359 -75 1813 -75 
Q 947 -75 531 491 
Q 203 944 203 1634 
Q 203 2459 634 2926 
Q 1066 3394 1725 3394 
Q 2466 3394 2894 2905 
Q 3322 2416 3303 1406 
L 1103 1406 
Q 1113 1016 1316 798 
Q 1519 581 1822 581 
Q 2028 581 2168 693 
Q 2309 806 2381 1056 
z
M 2431 1944 
Q 2422 2325 2234 2523 
Q 2047 2722 1778 2722 
Q 1491 2722 1303 2513 
Q 1116 2303 1119 1944 
L 2431 1944 
z
" transform="scale(0.015625)"/>
       <path id="Arial-BoldMT-6e" d="M 3478 0 
L 2600 0 
L 2600 1694 
Q 2600 2231 2544 2389 
Q 2488 2547 2361 2634 
Q 2234 2722 2056 2722 
Q 1828 2722 1647 2597 
Q 1466 2472 1398 2265 
Q 1331 2059 1331 1503 
L 1331 0 
L 453 0 
L 453 3319 
L 1269 3319 
L 1269 2831 
Q 1703 3394 2363 3394 
Q 2653 3394 2893 3289 
Q 3134 3184 3257 3021 
Q 3381 2859 3429 2653 
Q 3478 2447 3478 2063 
L 3478 0 
z
" transform="scale(0.015625)"/>
       <path id="Arial-BoldMT-5f" d="M -59 -1266 
L -59 -697 
L 3591 -697 
L 3591 -1266 
L -59 -1266 
z
" transform="scale(0.015625)"/>
       <path id="Arial-BoldMT-63" d="M 3353 2338 
L 2488 2181 
Q 2444 2441 2289 2572 
Q 2134 2703 1888 2703 
Q 1559 2703 1364 2476 
Q 1169 2250 1169 1719 
Q 1169 1128 1367 884 
Q 1566 641 1900 641 
Q 2150 641 2309 783 
Q 2469 925 2534 1272 
L 3397 1125 
Q 3263 531 2881 228 
Q 2500 -75 1859 -75 
Q 1131 -75 698 384 
Q 266 844 266 1656 
Q 266 2478 700 2936 
Q 1134 3394 1875 3394 
Q 2481 3394 2839 3133 
Q 3197 2872 3353 2338 
z
" transform="scale(0.015625)"/>
       <path id="Arial-BoldMT-75" d="M 2644 0 
L 2644 497 
Q 2463 231 2167 78 
Q 1872 -75 1544 -75 
Q 1209 -75 943 72 
Q 678 219 559 484 
Q 441 750 441 1219 
L 441 3319 
L 1319 3319 
L 1319 1794 
Q 1319 1094 1367 936 
Q 1416 778 1544 686 
Q 1672 594 1869 594 
Q 2094 594 2272 717 
Q 2450 841 2515 1023 
Q 2581 1206 2581 1919 
L 2581 3319 
L 3459 3319 
L 3459 0 
L 2644 0 
z
" transform="scale(0.015625)"/>
       <path id="Arial-BoldMT-6c" d="M 459 0 
L 459 4581 
L 1338 4581 
L 1338 0 
L 459 0 
z
" transform="scale(0.015625)"/>
      </defs>
      <use xlink:href="#Arial-BoldMT-76"/>
      <use xlink:href="#Arial-BoldMT-65" x="55.615234"/>
      <use xlink:href="#Arial-BoldMT-6e" x="111.230469"/>
      <use xlink:href="#Arial-BoldMT-74" x="172.314453"/>
      <use xlink:href="#Arial-BoldMT-61" x="205.615234"/>
      <use xlink:href="#Arial-BoldMT-5f" x="261.230469"/>
      <use xlink:href="#Arial-BoldMT-61" x="316.845703"/>
      <use xlink:href="#Arial-BoldMT-63" x="372.460938"/>
      <use xlink:href="#Arial-BoldMT-74" x="428.076172"/>
      <use xlink:href="#Arial-BoldMT-75" x="461.376953"/>
      <use xlink:href="#Arial-BoldMT-61" x="522.460938"/>
      <use xlink:href="#Arial-BoldMT-6c" x="578.076172"/>
     </g>
    </g>
    <g id="patch_4">
     <path d="M 70.615125 66.4125 
L 83.961375 66.4125 
L 83.961375 52.0125 
L 70.615125 52.0125 
z
" style="fill: #ffffff; stroke: #000000; stroke-linejoin: miter"/>
    </g>
    <g id="text_3">
     <!-- 0 -->
     <g style="fill: #262626" transform="translate(71.94975 61.797656) scale(0.1 -0.1)">
      <defs>
       <path id="ArialMT-30" d="M 266 2259 
Q 266 3072 433 3567 
Q 600 4063 929 4331 
Q 1259 4600 1759 4600 
Q 2128 4600 2406 4451 
Q 2684 4303 2865 4023 
Q 3047 3744 3150 3342 
Q 3253 2941 3253 2259 
Q 3253 1453 3087 958 
Q 2922 463 2592 192 
Q 2263 -78 1759 -78 
Q 1097 -78 719 397 
Q 266 969 266 2259 
z
M 844 2259 
Q 844 1131 1108 757 
Q 1372 384 1759 384 
Q 2147 384 2411 759 
Q 2675 1134 2675 2259 
Q 2675 3391 2411 3762 
Q 2147 4134 1753 4134 
Q 1366 4134 1134 3806 
Q 844 3388 844 2259 
z
" transform="scale(0.015625)"/>
      </defs>
      <use xlink:href="#ArialMT-30"/>
     </g>
    </g>
    <g id="patch_5">
     <path d="M 83.961375 66.4125 
L 178.003875 66.4125 
L 178.003875 52.0125 
L 83.961375 52.0125 
z
" style="fill: #ffffff; stroke: #000000; stroke-linejoin: miter"/>
    </g>
    <g id="text_4">
     <!-- veracruz -->
     <g style="fill: #262626" transform="translate(111.811531 61.797656) scale(0.1 -0.1)">
      <defs>
       <path id="ArialMT-76" d="M 1344 0 
L 81 3319 
L 675 3319 
L 1388 1331 
Q 1503 1009 1600 663 
Q 1675 925 1809 1294 
L 2547 3319 
L 3125 3319 
L 1869 0 
L 1344 0 
z
" transform="scale(0.015625)"/>
       <path id="ArialMT-65" d="M 2694 1069 
L 3275 997 
Q 3138 488 2766 206 
Q 2394 -75 1816 -75 
Q 1088 -75 661 373 
Q 234 822 234 1631 
Q 234 2469 665 2931 
Q 1097 3394 1784 3394 
Q 2450 3394 2872 2941 
Q 3294 2488 3294 1666 
Q 3294 1616 3291 1516 
L 816 1516 
Q 847 969 1125 678 
Q 1403 388 1819 388 
Q 2128 388 2347 550 
Q 2566 713 2694 1069 
z
M 847 1978 
L 2700 1978 
Q 2663 2397 2488 2606 
Q 2219 2931 1791 2931 
Q 1403 2931 1139 2672 
Q 875 2413 847 1978 
z
" transform="scale(0.015625)"/>
       <path id="ArialMT-72" d="M 416 0 
L 416 3319 
L 922 3319 
L 922 2816 
Q 1116 3169 1280 3281 
Q 1444 3394 1641 3394 
Q 1925 3394 2219 3213 
L 2025 2691 
Q 1819 2813 1613 2813 
Q 1428 2813 1281 2702 
Q 1134 2591 1072 2394 
Q 978 2094 978 1738 
L 978 0 
L 416 0 
z
" transform="scale(0.015625)"/>
       <path id="ArialMT-61" d="M 2588 409 
Q 2275 144 1986 34 
Q 1697 -75 1366 -75 
Q 819 -75 525 192 
Q 231 459 231 875 
Q 231 1119 342 1320 
Q 453 1522 633 1644 
Q 813 1766 1038 1828 
Q 1203 1872 1538 1913 
Q 2219 1994 2541 2106 
Q 2544 2222 2544 2253 
Q 2544 2597 2384 2738 
Q 2169 2928 1744 2928 
Q 1347 2928 1158 2789 
Q 969 2650 878 2297 
L 328 2372 
Q 403 2725 575 2942 
Q 747 3159 1072 3276 
Q 1397 3394 1825 3394 
Q 2250 3394 2515 3294 
Q 2781 3194 2906 3042 
Q 3031 2891 3081 2659 
Q 3109 2516 3109 2141 
L 3109 1391 
Q 3109 606 3145 398 
Q 3181 191 3288 0 
L 2700 0 
Q 2613 175 2588 409 
z
M 2541 1666 
Q 2234 1541 1622 1453 
Q 1275 1403 1131 1340 
Q 988 1278 909 1158 
Q 831 1038 831 891 
Q 831 666 1001 516 
Q 1172 366 1500 366 
Q 1825 366 2078 508 
Q 2331 650 2450 897 
Q 2541 1088 2541 1459 
L 2541 1666 
z
" transform="scale(0.015625)"/>
       <path id="ArialMT-63" d="M 2588 1216 
L 3141 1144 
Q 3050 572 2676 248 
Q 2303 -75 1759 -75 
Q 1078 -75 664 370 
Q 250 816 250 1647 
Q 250 2184 428 2587 
Q 606 2991 970 3192 
Q 1334 3394 1763 3394 
Q 2303 3394 2647 3120 
Q 2991 2847 3088 2344 
L 2541 2259 
Q 2463 2594 2264 2762 
Q 2066 2931 1784 2931 
Q 1359 2931 1093 2626 
Q 828 2322 828 1663 
Q 828 994 1084 691 
Q 1341 388 1753 388 
Q 2084 388 2306 591 
Q 2528 794 2588 1216 
z
" transform="scale(0.015625)"/>
       <path id="ArialMT-75" d="M 2597 0 
L 2597 488 
Q 2209 -75 1544 -75 
Q 1250 -75 995 37 
Q 741 150 617 320 
Q 494 491 444 738 
Q 409 903 409 1263 
L 409 3319 
L 972 3319 
L 972 1478 
Q 972 1038 1006 884 
Q 1059 663 1231 536 
Q 1403 409 1656 409 
Q 1909 409 2131 539 
Q 2353 669 2445 892 
Q 2538 1116 2538 1541 
L 2538 3319 
L 3100 3319 
L 3100 0 
L 2597 0 
z
" transform="scale(0.015625)"/>
       <path id="ArialMT-7a" d="M 125 0 
L 125 456 
L 2238 2881 
Q 1878 2863 1603 2863 
L 250 2863 
L 250 3319 
L 2963 3319 
L 2963 2947 
L 1166 841 
L 819 456 
Q 1197 484 1528 484 
L 3063 484 
L 3063 0 
L 125 0 
z
" transform="scale(0.015625)"/>
      </defs>
      <use xlink:href="#ArialMT-76"/>
      <use xlink:href="#ArialMT-65" x="50"/>
      <use xlink:href="#ArialMT-72" x="105.615234"/>
      <use xlink:href="#ArialMT-61" x="138.916016"/>
      <use xlink:href="#ArialMT-63" x="194.53125"/>
      <use xlink:href="#ArialMT-72" x="244.53125"/>
      <use xlink:href="#ArialMT-75" x="277.832031"/>
      <use xlink:href="#ArialMT-7a" x="333.447266"/>
     </g>
    </g>
    <g id="patch_6">
     <path d="M 178.003875 66.4125 
L 265.238625 66.4125 
L 265.238625 52.0125 
L 178.003875 52.0125 
z
" style="fill: #00441b; stroke: #000000; stroke-linejoin: miter"/>
    </g>
    <g id="text_5">
     <!-- $4,057,768 -->
     <g style="fill: #ffffff" transform="translate(196.599375 61.841406) scale(0.1 -0.1)">
      <defs>
       <path id="ArialMT-24" d="M 1594 -659 
L 1594 -97 
Q 1172 -44 908 92 
Q 644 228 451 531 
Q 259 834 228 1272 
L 794 1378 
Q 859 925 1025 713 
Q 1263 413 1594 378 
L 1594 2169 
Q 1247 2234 884 2438 
Q 616 2588 470 2853 
Q 325 3119 325 3456 
Q 325 4056 750 4428 
Q 1034 4678 1594 4734 
L 1594 5003 
L 1925 5003 
L 1925 4734 
Q 2416 4688 2703 4447 
Q 3072 4141 3147 3606 
L 2566 3519 
Q 2516 3850 2358 4026 
Q 2200 4203 1925 4259 
L 1925 2638 
Q 2350 2531 2488 2472 
Q 2750 2356 2915 2190 
Q 3081 2025 3170 1797 
Q 3259 1569 3259 1303 
Q 3259 719 2887 328 
Q 2516 -63 1925 -91 
L 1925 -659 
L 1594 -659 
z
M 1594 4266 
Q 1266 4216 1077 4003 
Q 888 3791 888 3500 
Q 888 3213 1048 3019 
Q 1209 2825 1594 2709 
L 1594 4266 
z
M 1925 378 
Q 2253 419 2467 662 
Q 2681 906 2681 1266 
Q 2681 1572 2529 1758 
Q 2378 1944 1925 2091 
L 1925 378 
z
" transform="scale(0.015625)"/>
       <path id="ArialMT-34" d="M 2069 0 
L 2069 1097 
L 81 1097 
L 81 1613 
L 2172 4581 
L 2631 4581 
L 2631 1613 
L 3250 1613 
L 3250 1097 
L 2631 1097 
L 2631 0 
L 2069 0 
z
M 2069 1613 
L 2069 3678 
L 634 1613 
L 2069 1613 
z
" transform="scale(0.015625)"/>
       <path id="ArialMT-2c" d="M 569 0 
L 569 641 
L 1209 641 
L 1209 0 
Q 1209 -353 1084 -570 
Q 959 -788 688 -906 
L 531 -666 
Q 709 -588 793 -436 
Q 878 -284 888 0 
L 569 0 
z
" transform="scale(0.015625)"/>
       <path id="ArialMT-35" d="M 266 1200 
L 856 1250 
Q 922 819 1161 601 
Q 1400 384 1738 384 
Q 2144 384 2425 690 
Q 2706 997 2706 1503 
Q 2706 1984 2436 2262 
Q 2166 2541 1728 2541 
Q 1456 2541 1237 2417 
Q 1019 2294 894 2097 
L 366 2166 
L 809 4519 
L 3088 4519 
L 3088 3981 
L 1259 3981 
L 1013 2750 
Q 1425 3038 1878 3038 
Q 2478 3038 2890 2622 
Q 3303 2206 3303 1553 
Q 3303 931 2941 478 
Q 2500 -78 1738 -78 
Q 1113 -78 717 272 
Q 322 622 266 1200 
z
" transform="scale(0.015625)"/>
       <path id="ArialMT-37" d="M 303 3981 
L 303 4522 
L 3269 4522 
L 3269 4084 
Q 2831 3619 2401 2847 
Q 1972 2075 1738 1259 
Q 1569 684 1522 0 
L 944 0 
Q 953 541 1156 1306 
Q 1359 2072 1739 2783 
Q 2119 3494 2547 3981 
L 303 3981 
z
" transform="scale(0.015625)"/>
       <path id="ArialMT-36" d="M 3184 3459 
L 2625 3416 
Q 2550 3747 2413 3897 
Q 2184 4138 1850 4138 
Q 1581 4138 1378 3988 
Q 1113 3794 959 3422 
Q 806 3050 800 2363 
Q 1003 2672 1297 2822 
Q 1591 2972 1913 2972 
Q 2475 2972 2870 2558 
Q 3266 2144 3266 1488 
Q 3266 1056 3080 686 
Q 2894 316 2569 119 
Q 2244 -78 1831 -78 
Q 1128 -78 684 439 
Q 241 956 241 2144 
Q 241 3472 731 4075 
Q 1159 4600 1884 4600 
Q 2425 4600 2770 4297 
Q 3116 3994 3184 3459 
z
M 888 1484 
Q 888 1194 1011 928 
Q 1134 663 1356 523 
Q 1578 384 1822 384 
Q 2178 384 2434 671 
Q 2691 959 2691 1453 
Q 2691 1928 2437 2201 
Q 2184 2475 1800 2475 
Q 1419 2475 1153 2201 
Q 888 1928 888 1484 
z
" transform="scale(0.015625)"/>
       <path id="ArialMT-38" d="M 1131 2484 
Q 781 2613 612 2850 
Q 444 3088 444 3419 
Q 444 3919 803 4259 
Q 1163 4600 1759 4600 
Q 2359 4600 2725 4251 
Q 3091 3903 3091 3403 
Q 3091 3084 2923 2848 
Q 2756 2613 2416 2484 
Q 2838 2347 3058 2040 
Q 3278 1734 3278 1309 
Q 3278 722 2862 322 
Q 2447 -78 1769 -78 
Q 1091 -78 675 323 
Q 259 725 259 1325 
Q 259 1772 486 2073 
Q 713 2375 1131 2484 
z
M 1019 3438 
Q 1019 3113 1228 2906 
Q 1438 2700 1772 2700 
Q 2097 2700 2305 2904 
Q 2513 3109 2513 3406 
Q 2513 3716 2298 3927 
Q 2084 4138 1766 4138 
Q 1444 4138 1231 3931 
Q 1019 3725 1019 3438 
z
M 838 1322 
Q 838 1081 952 856 
Q 1066 631 1291 507 
Q 1516 384 1775 384 
Q 2178 384 2440 643 
Q 2703 903 2703 1303 
Q 2703 1709 2433 1975 
Q 2163 2241 1756 2241 
Q 1359 2241 1098 1978 
Q 838 1716 838 1322 
z
" transform="scale(0.015625)"/>
      </defs>
      <use xlink:href="#ArialMT-24"/>
      <use xlink:href="#ArialMT-34" x="55.615234"/>
      <use xlink:href="#ArialMT-2c" x="111.230469"/>
      <use xlink:href="#ArialMT-30" x="139.013672"/>
      <use xlink:href="#ArialMT-35" x="194.628906"/>
      <use xlink:href="#ArialMT-37" x="250.244141"/>
      <use xlink:href="#ArialMT-2c" x="305.859375"/>
      <use xlink:href="#ArialMT-37" x="333.642578"/>
      <use xlink:href="#ArialMT-36" x="389.257812"/>
      <use xlink:href="#ArialMT-38" x="444.873047"/>
     </g>
    </g>
    <g id="patch_7">
     <path d="M 70.615125 80.8125 
L 83.961375 80.8125 
L 83.961375 66.4125 
L 70.615125 66.4125 
z
" style="fill: #ffffff; stroke: #000000; stroke-linejoin: miter"/>
    </g>
    <g id="text_6">
     <!-- 1 -->
     <g style="fill: #262626" transform="translate(71.94975 76.197656) scale(0.1 -0.1)">
      <defs>
       <path id="ArialMT-31" d="M 2384 0 
L 1822 0 
L 1822 3584 
Q 1619 3391 1289 3197 
Q 959 3003 697 2906 
L 697 3450 
Q 1169 3672 1522 3987 
Q 1875 4303 2022 4600 
L 2384 4600 
L 2384 0 
z
" transform="scale(0.015625)"/>
      </defs>
      <use xlink:href="#ArialMT-31"/>
     </g>
    </g>
    <g id="patch_8">
     <path d="M 83.961375 80.8125 
L 178.003875 80.8125 
L 178.003875 66.4125 
L 83.961375 66.4125 
z
" style="fill: #ffffff; stroke: #000000; stroke-linejoin: miter"/>
    </g>
    <g id="text_7">
     <!-- tabasco -->
     <g style="fill: #262626" transform="translate(113.471688 76.197656) scale(0.1 -0.1)">
      <defs>
       <path id="ArialMT-74" d="M 1650 503 
L 1731 6 
Q 1494 -44 1306 -44 
Q 1000 -44 831 53 
Q 663 150 594 308 
Q 525 466 525 972 
L 525 2881 
L 113 2881 
L 113 3319 
L 525 3319 
L 525 4141 
L 1084 4478 
L 1084 3319 
L 1650 3319 
L 1650 2881 
L 1084 2881 
L 1084 941 
Q 1084 700 1114 631 
Q 1144 563 1211 522 
Q 1278 481 1403 481 
Q 1497 481 1650 503 
z
" transform="scale(0.015625)"/>
       <path id="ArialMT-62" d="M 941 0 
L 419 0 
L 419 4581 
L 981 4581 
L 981 2947 
Q 1338 3394 1891 3394 
Q 2197 3394 2470 3270 
Q 2744 3147 2920 2923 
Q 3097 2700 3197 2384 
Q 3297 2069 3297 1709 
Q 3297 856 2875 390 
Q 2453 -75 1863 -75 
Q 1275 -75 941 416 
L 941 0 
z
M 934 1684 
Q 934 1088 1097 822 
Q 1363 388 1816 388 
Q 2184 388 2453 708 
Q 2722 1028 2722 1663 
Q 2722 2313 2464 2622 
Q 2206 2931 1841 2931 
Q 1472 2931 1203 2611 
Q 934 2291 934 1684 
z
" transform="scale(0.015625)"/>
       <path id="ArialMT-73" d="M 197 991 
L 753 1078 
Q 800 744 1014 566 
Q 1228 388 1613 388 
Q 2000 388 2187 545 
Q 2375 703 2375 916 
Q 2375 1106 2209 1216 
Q 2094 1291 1634 1406 
Q 1016 1563 777 1677 
Q 538 1791 414 1992 
Q 291 2194 291 2438 
Q 291 2659 392 2848 
Q 494 3038 669 3163 
Q 800 3259 1026 3326 
Q 1253 3394 1513 3394 
Q 1903 3394 2198 3281 
Q 2494 3169 2634 2976 
Q 2775 2784 2828 2463 
L 2278 2388 
Q 2241 2644 2061 2787 
Q 1881 2931 1553 2931 
Q 1166 2931 1000 2803 
Q 834 2675 834 2503 
Q 834 2394 903 2306 
Q 972 2216 1119 2156 
Q 1203 2125 1616 2013 
Q 2213 1853 2448 1751 
Q 2684 1650 2818 1456 
Q 2953 1263 2953 975 
Q 2953 694 2789 445 
Q 2625 197 2315 61 
Q 2006 -75 1616 -75 
Q 969 -75 630 194 
Q 291 463 197 991 
z
" transform="scale(0.015625)"/>
       <path id="ArialMT-6f" d="M 213 1659 
Q 213 2581 725 3025 
Q 1153 3394 1769 3394 
Q 2453 3394 2887 2945 
Q 3322 2497 3322 1706 
Q 3322 1066 3130 698 
Q 2938 331 2570 128 
Q 2203 -75 1769 -75 
Q 1072 -75 642 372 
Q 213 819 213 1659 
z
M 791 1659 
Q 791 1022 1069 705 
Q 1347 388 1769 388 
Q 2188 388 2466 706 
Q 2744 1025 2744 1678 
Q 2744 2294 2464 2611 
Q 2184 2928 1769 2928 
Q 1347 2928 1069 2612 
Q 791 2297 791 1659 
z
" transform="scale(0.015625)"/>
      </defs>
      <use xlink:href="#ArialMT-74"/>
      <use xlink:href="#ArialMT-61" x="27.783203"/>
      <use xlink:href="#ArialMT-62" x="83.398438"/>
      <use xlink:href="#ArialMT-61" x="139.013672"/>
      <use xlink:href="#ArialMT-73" x="194.628906"/>
      <use xlink:href="#ArialMT-63" x="244.628906"/>
      <use xlink:href="#ArialMT-6f" x="294.628906"/>
     </g>
    </g>
    <g id="patch_9">
     <path d="M 178.003875 80.8125 
L 265.238625 80.8125 
L 265.238625 66.4125 
L 178.003875 66.4125 
z
" style="fill: #aadda4; stroke: #000000; stroke-linejoin: miter"/>
    </g>
    <g id="text_8">
     <!-- $1,407,111 -->
     <g transform="translate(197.336875 76.241406) scale(0.1 -0.1)">
      <use xlink:href="#ArialMT-24"/>
      <use xlink:href="#ArialMT-31" x="55.615234"/>
      <use xlink:href="#ArialMT-2c" x="111.230469"/>
      <use xlink:href="#ArialMT-34" x="139.013672"/>
      <use xlink:href="#ArialMT-30" x="194.628906"/>
      <use xlink:href="#ArialMT-37" x="250.244141"/>
      <use xlink:href="#ArialMT-2c" x="305.859375"/>
      <use xlink:href="#ArialMT-31" x="333.642578"/>
      <use xlink:href="#ArialMT-31" x="381.882812"/>
      <use xlink:href="#ArialMT-31" x="430.123047"/>
     </g>
    </g>
    <g id="patch_10">
     <path d="M 70.615125 95.2125 
L 83.961375 95.2125 
L 83.961375 80.8125 
L 70.615125 80.8125 
z
" style="fill: #ffffff; stroke: #000000; stroke-linejoin: miter"/>
    </g>
    <g id="text_9">
     <!-- 2 -->
     <g style="fill: #262626" transform="translate(71.94975 90.597656) scale(0.1 -0.1)">
      <defs>
       <path id="ArialMT-32" d="M 3222 541 
L 3222 0 
L 194 0 
Q 188 203 259 391 
Q 375 700 629 1000 
Q 884 1300 1366 1694 
Q 2113 2306 2375 2664 
Q 2638 3022 2638 3341 
Q 2638 3675 2398 3904 
Q 2159 4134 1775 4134 
Q 1369 4134 1125 3890 
Q 881 3647 878 3216 
L 300 3275 
Q 359 3922 746 4261 
Q 1134 4600 1788 4600 
Q 2447 4600 2831 4234 
Q 3216 3869 3216 3328 
Q 3216 3053 3103 2787 
Q 2991 2522 2730 2228 
Q 2469 1934 1863 1422 
Q 1356 997 1212 845 
Q 1069 694 975 541 
L 3222 541 
z
" transform="scale(0.015625)"/>
      </defs>
      <use xlink:href="#ArialMT-32"/>
     </g>
    </g>
    <g id="patch_11">
     <path d="M 83.961375 95.2125 
L 178.003875 95.2125 
L 178.003875 80.8125 
L 83.961375 80.8125 
z
" style="fill: #ffffff; stroke: #000000; stroke-linejoin: miter"/>
    </g>
    <g id="text_10">
     <!-- ciudad de méxico -->
     <g style="fill: #262626" transform="translate(92.074031 90.597656) scale(0.1 -0.1)">
      <defs>
       <path id="ArialMT-69" d="M 425 3934 
L 425 4581 
L 988 4581 
L 988 3934 
L 425 3934 
z
M 425 0 
L 425 3319 
L 988 3319 
L 988 0 
L 425 0 
z
" transform="scale(0.015625)"/>
       <path id="ArialMT-64" d="M 2575 0 
L 2575 419 
Q 2259 -75 1647 -75 
Q 1250 -75 917 144 
Q 584 363 401 755 
Q 219 1147 219 1656 
Q 219 2153 384 2558 
Q 550 2963 881 3178 
Q 1213 3394 1622 3394 
Q 1922 3394 2156 3267 
Q 2391 3141 2538 2938 
L 2538 4581 
L 3097 4581 
L 3097 0 
L 2575 0 
z
M 797 1656 
Q 797 1019 1065 703 
Q 1334 388 1700 388 
Q 2069 388 2326 689 
Q 2584 991 2584 1609 
Q 2584 2291 2321 2609 
Q 2059 2928 1675 2928 
Q 1300 2928 1048 2622 
Q 797 2316 797 1656 
z
" transform="scale(0.015625)"/>
       <path id="ArialMT-20" transform="scale(0.015625)"/>
       <path id="ArialMT-6d" d="M 422 0 
L 422 3319 
L 925 3319 
L 925 2853 
Q 1081 3097 1340 3245 
Q 1600 3394 1931 3394 
Q 2300 3394 2536 3241 
Q 2772 3088 2869 2813 
Q 3263 3394 3894 3394 
Q 4388 3394 4653 3120 
Q 4919 2847 4919 2278 
L 4919 0 
L 4359 0 
L 4359 2091 
Q 4359 2428 4304 2576 
Q 4250 2725 4106 2815 
Q 3963 2906 3769 2906 
Q 3419 2906 3187 2673 
Q 2956 2441 2956 1928 
L 2956 0 
L 2394 0 
L 2394 2156 
Q 2394 2531 2256 2718 
Q 2119 2906 1806 2906 
Q 1569 2906 1367 2781 
Q 1166 2656 1075 2415 
Q 984 2175 984 1722 
L 984 0 
L 422 0 
z
" transform="scale(0.015625)"/>
       <path id="ArialMT-e9" d="M 2694 1069 
L 3275 997 
Q 3138 488 2766 206 
Q 2394 -75 1816 -75 
Q 1088 -75 661 373 
Q 234 822 234 1631 
Q 234 2469 665 2931 
Q 1097 3394 1784 3394 
Q 2450 3394 2872 2941 
Q 3294 2488 3294 1666 
Q 3294 1616 3291 1516 
L 816 1516 
Q 847 969 1125 678 
Q 1403 388 1819 388 
Q 2128 388 2347 550 
Q 2566 713 2694 1069 
z
M 847 1978 
L 2700 1978 
Q 2663 2397 2488 2606 
Q 2219 2931 1791 2931 
Q 1403 2931 1139 2672 
Q 875 2413 847 1978 
z
M 1454 3731 
L 1869 4606 
L 2607 4606 
L 1919 3731 
L 1454 3731 
z
" transform="scale(0.015625)"/>
       <path id="ArialMT-78" d="M 47 0 
L 1259 1725 
L 138 3319 
L 841 3319 
L 1350 2541 
Q 1494 2319 1581 2169 
Q 1719 2375 1834 2534 
L 2394 3319 
L 3066 3319 
L 1919 1756 
L 3153 0 
L 2463 0 
L 1781 1031 
L 1600 1309 
L 728 0 
L 47 0 
z
" transform="scale(0.015625)"/>
      </defs>
      <use xlink:href="#ArialMT-63"/>
      <use xlink:href="#ArialMT-69" x="50"/>
      <use xlink:href="#ArialMT-75" x="72.216797"/>
      <use xlink:href="#ArialMT-64" x="127.832031"/>
      <use xlink:href="#ArialMT-61" x="183.447266"/>
      <use xlink:href="#ArialMT-64" x="239.0625"/>
      <use xlink:href="#ArialMT-20" x="294.677734"/>
      <use xlink:href="#ArialMT-64" x="322.460938"/>
      <use xlink:href="#ArialMT-65" x="378.076172"/>
      <use xlink:href="#ArialMT-20" x="433.691406"/>
      <use xlink:href="#ArialMT-6d" x="461.474609"/>
      <use xlink:href="#ArialMT-e9" x="544.775391"/>
      <use xlink:href="#ArialMT-78" x="600.390625"/>
      <use xlink:href="#ArialMT-69" x="650.390625"/>
      <use xlink:href="#ArialMT-63" x="672.607422"/>
      <use xlink:href="#ArialMT-6f" x="722.607422"/>
     </g>
    </g>
    <g id="patch_12">
     <path d="M 178.003875 95.2125 
L 265.238625 95.2125 
L 265.238625 80.8125 
L 178.003875 80.8125 
z
" style="fill: #acdea6; stroke: #000000; stroke-linejoin: miter"/>
    </g>
    <g id="text_11">
     <!-- $1,367,691 -->
     <g transform="translate(196.599375 90.641406) scale(0.1 -0.1)">
      <defs>
       <path id="ArialMT-33" d="M 269 1209 
L 831 1284 
Q 928 806 1161 595 
Q 1394 384 1728 384 
Q 2125 384 2398 659 
Q 2672 934 2672 1341 
Q 2672 1728 2419 1979 
Q 2166 2231 1775 2231 
Q 1616 2231 1378 2169 
L 1441 2663 
Q 1497 2656 1531 2656 
Q 1891 2656 2178 2843 
Q 2466 3031 2466 3422 
Q 2466 3731 2256 3934 
Q 2047 4138 1716 4138 
Q 1388 4138 1169 3931 
Q 950 3725 888 3313 
L 325 3413 
Q 428 3978 793 4289 
Q 1159 4600 1703 4600 
Q 2078 4600 2393 4439 
Q 2709 4278 2876 4000 
Q 3044 3722 3044 3409 
Q 3044 3113 2884 2869 
Q 2725 2625 2413 2481 
Q 2819 2388 3044 2092 
Q 3269 1797 3269 1353 
Q 3269 753 2831 336 
Q 2394 -81 1725 -81 
Q 1122 -81 723 278 
Q 325 638 269 1209 
z
" transform="scale(0.015625)"/>
       <path id="ArialMT-39" d="M 350 1059 
L 891 1109 
Q 959 728 1153 556 
Q 1347 384 1650 384 
Q 1909 384 2104 503 
Q 2300 622 2425 820 
Q 2550 1019 2634 1356 
Q 2719 1694 2719 2044 
Q 2719 2081 2716 2156 
Q 2547 1888 2255 1720 
Q 1963 1553 1622 1553 
Q 1053 1553 659 1965 
Q 266 2378 266 3053 
Q 266 3750 677 4175 
Q 1088 4600 1706 4600 
Q 2153 4600 2523 4359 
Q 2894 4119 3086 3673 
Q 3278 3228 3278 2384 
Q 3278 1506 3087 986 
Q 2897 466 2520 194 
Q 2144 -78 1638 -78 
Q 1100 -78 759 220 
Q 419 519 350 1059 
z
M 2653 3081 
Q 2653 3566 2395 3850 
Q 2138 4134 1775 4134 
Q 1400 4134 1122 3828 
Q 844 3522 844 3034 
Q 844 2597 1108 2323 
Q 1372 2050 1759 2050 
Q 2150 2050 2401 2323 
Q 2653 2597 2653 3081 
z
" transform="scale(0.015625)"/>
      </defs>
      <use xlink:href="#ArialMT-24"/>
      <use xlink:href="#ArialMT-31" x="55.615234"/>
      <use xlink:href="#ArialMT-2c" x="111.230469"/>
      <use xlink:href="#ArialMT-33" x="139.013672"/>
      <use xlink:href="#ArialMT-36" x="194.628906"/>
      <use xlink:href="#ArialMT-37" x="250.244141"/>
      <use xlink:href="#ArialMT-2c" x="305.859375"/>
      <use xlink:href="#ArialMT-36" x="333.642578"/>
      <use xlink:href="#ArialMT-39" x="389.257812"/>
      <use xlink:href="#ArialMT-31" x="444.873047"/>
     </g>
    </g>
    <g id="patch_13">
     <path d="M 70.615125 109.6125 
L 83.961375 109.6125 
L 83.961375 95.2125 
L 70.615125 95.2125 
z
" style="fill: #ffffff; stroke: #000000; stroke-linejoin: miter"/>
    </g>
    <g id="text_12">
     <!-- 3 -->
     <g style="fill: #262626" transform="translate(71.94975 104.997656) scale(0.1 -0.1)">
      <use xlink:href="#ArialMT-33"/>
     </g>
    </g>
    <g id="patch_14">
     <path d="M 83.961375 109.6125 
L 178.003875 109.6125 
L 178.003875 95.2125 
L 83.961375 95.2125 
z
" style="fill: #ffffff; stroke: #000000; stroke-linejoin: miter"/>
    </g>
    <g id="text_13">
     <!-- tamaulipas -->
     <g style="fill: #262626" transform="translate(106.8045 104.997656) scale(0.1 -0.1)">
      <defs>
       <path id="ArialMT-6c" d="M 409 0 
L 409 4581 
L 972 4581 
L 972 0 
L 409 0 
z
" transform="scale(0.015625)"/>
       <path id="ArialMT-70" d="M 422 -1272 
L 422 3319 
L 934 3319 
L 934 2888 
Q 1116 3141 1344 3267 
Q 1572 3394 1897 3394 
Q 2322 3394 2647 3175 
Q 2972 2956 3137 2557 
Q 3303 2159 3303 1684 
Q 3303 1175 3120 767 
Q 2938 359 2589 142 
Q 2241 -75 1856 -75 
Q 1575 -75 1351 44 
Q 1128 163 984 344 
L 984 -1272 
L 422 -1272 
z
M 931 1641 
Q 931 1000 1190 694 
Q 1450 388 1819 388 
Q 2194 388 2461 705 
Q 2728 1022 2728 1688 
Q 2728 2322 2467 2637 
Q 2206 2953 1844 2953 
Q 1484 2953 1207 2617 
Q 931 2281 931 1641 
z
" transform="scale(0.015625)"/>
      </defs>
      <use xlink:href="#ArialMT-74"/>
      <use xlink:href="#ArialMT-61" x="27.783203"/>
      <use xlink:href="#ArialMT-6d" x="83.398438"/>
      <use xlink:href="#ArialMT-61" x="166.699219"/>
      <use xlink:href="#ArialMT-75" x="222.314453"/>
      <use xlink:href="#ArialMT-6c" x="277.929688"/>
      <use xlink:href="#ArialMT-69" x="300.146484"/>
      <use xlink:href="#ArialMT-70" x="322.363281"/>
      <use xlink:href="#ArialMT-61" x="377.978516"/>
      <use xlink:href="#ArialMT-73" x="433.59375"/>
     </g>
    </g>
    <g id="patch_15">
     <path d="M 178.003875 109.6125 
L 265.238625 109.6125 
L 265.238625 95.2125 
L 178.003875 95.2125 
z
" style="fill: #b8e3b2; stroke: #000000; stroke-linejoin: miter"/>
    </g>
    <g id="text_14">
     <!-- $1,219,939 -->
     <g transform="translate(196.599375 105.041406) scale(0.1 -0.1)">
      <use xlink:href="#ArialMT-24"/>
      <use xlink:href="#ArialMT-31" x="55.615234"/>
      <use xlink:href="#ArialMT-2c" x="111.230469"/>
      <use xlink:href="#ArialMT-32" x="139.013672"/>
      <use xlink:href="#ArialMT-31" x="194.628906"/>
      <use xlink:href="#ArialMT-39" x="250.244141"/>
      <use xlink:href="#ArialMT-2c" x="305.859375"/>
      <use xlink:href="#ArialMT-39" x="333.642578"/>
      <use xlink:href="#ArialMT-33" x="389.257812"/>
      <use xlink:href="#ArialMT-39" x="444.873047"/>
     </g>
    </g>
    <g id="patch_16">
     <path d="M 70.615125 124.0125 
L 83.961375 124.0125 
L 83.961375 109.6125 
L 70.615125 109.6125 
z
" style="fill: #ffffff; stroke: #000000; stroke-linejoin: miter"/>
    </g>
    <g id="text_15">
     <!-- 4 -->
     <g style="fill: #262626" transform="translate(71.94975 119.397656) scale(0.1 -0.1)">
      <use xlink:href="#ArialMT-34"/>
     </g>
    </g>
    <g id="patch_17">
     <path d="M 83.961375 124.0125 
L 178.003875 124.0125 
L 178.003875 109.6125 
L 83.961375 109.6125 
z
" style="fill: #ffffff; stroke: #000000; stroke-linejoin: miter"/>
    </g>
    <g id="text_16">
     <!-- chiapas -->
     <g style="fill: #262626" transform="translate(113.749813 119.397656) scale(0.1 -0.1)">
      <defs>
       <path id="ArialMT-68" d="M 422 0 
L 422 4581 
L 984 4581 
L 984 2938 
Q 1378 3394 1978 3394 
Q 2347 3394 2619 3248 
Q 2891 3103 3008 2847 
Q 3125 2591 3125 2103 
L 3125 0 
L 2563 0 
L 2563 2103 
Q 2563 2525 2380 2717 
Q 2197 2909 1863 2909 
Q 1613 2909 1392 2779 
Q 1172 2650 1078 2428 
Q 984 2206 984 1816 
L 984 0 
L 422 0 
z
" transform="scale(0.015625)"/>
      </defs>
      <use xlink:href="#ArialMT-63"/>
      <use xlink:href="#ArialMT-68" x="50"/>
      <use xlink:href="#ArialMT-69" x="105.615234"/>
      <use xlink:href="#ArialMT-61" x="127.832031"/>
      <use xlink:href="#ArialMT-70" x="183.447266"/>
      <use xlink:href="#ArialMT-61" x="239.0625"/>
      <use xlink:href="#ArialMT-73" x="294.677734"/>
     </g>
    </g>
    <g id="patch_18">
     <path d="M 178.003875 124.0125 
L 265.238625 124.0125 
L 265.238625 109.6125 
L 178.003875 109.6125 
z
" style="fill: #c8e9c1; stroke: #000000; stroke-linejoin: miter"/>
    </g>
    <g id="text_17">
     <!-- $998,987 -->
     <g transform="translate(200.768906 119.441406) scale(0.1 -0.1)">
      <use xlink:href="#ArialMT-24"/>
      <use xlink:href="#ArialMT-39" x="55.615234"/>
      <use xlink:href="#ArialMT-39" x="111.230469"/>
      <use xlink:href="#ArialMT-38" x="166.845703"/>
      <use xlink:href="#ArialMT-2c" x="222.460938"/>
      <use xlink:href="#ArialMT-39" x="250.244141"/>
      <use xlink:href="#ArialMT-38" x="305.859375"/>
      <use xlink:href="#ArialMT-37" x="361.474609"/>
     </g>
    </g>
    <g id="patch_19">
     <path d="M 70.615125 138.4125 
L 83.961375 138.4125 
L 83.961375 124.0125 
L 70.615125 124.0125 
z
" style="fill: #ffffff; stroke: #000000; stroke-linejoin: miter"/>
    </g>
    <g id="text_18">
     <!-- 5 -->
     <g style="fill: #262626" transform="translate(71.94975 133.797656) scale(0.1 -0.1)">
      <use xlink:href="#ArialMT-35"/>
     </g>
    </g>
    <g id="patch_20">
     <path d="M 83.961375 138.4125 
L 178.003875 138.4125 
L 178.003875 124.0125 
L 83.961375 124.0125 
z
" style="fill: #ffffff; stroke: #000000; stroke-linejoin: miter"/>
    </g>
    <g id="text_19">
     <!-- quintana roo -->
     <g style="fill: #262626" transform="translate(103.184969 133.797656) scale(0.1 -0.1)">
      <defs>
       <path id="ArialMT-71" d="M 2538 -1272 
L 2538 353 
Q 2406 169 2170 47 
Q 1934 -75 1669 -75 
Q 1078 -75 651 397 
Q 225 869 225 1691 
Q 225 2191 398 2587 
Q 572 2984 901 3189 
Q 1231 3394 1625 3394 
Q 2241 3394 2594 2875 
L 2594 3319 
L 3100 3319 
L 3100 -1272 
L 2538 -1272 
z
M 803 1669 
Q 803 1028 1072 708 
Q 1341 388 1716 388 
Q 2075 388 2334 692 
Q 2594 997 2594 1619 
Q 2594 2281 2320 2615 
Q 2047 2950 1678 2950 
Q 1313 2950 1058 2639 
Q 803 2328 803 1669 
z
" transform="scale(0.015625)"/>
       <path id="ArialMT-6e" d="M 422 0 
L 422 3319 
L 928 3319 
L 928 2847 
Q 1294 3394 1984 3394 
Q 2284 3394 2536 3286 
Q 2788 3178 2913 3003 
Q 3038 2828 3088 2588 
Q 3119 2431 3119 2041 
L 3119 0 
L 2556 0 
L 2556 2019 
Q 2556 2363 2490 2533 
Q 2425 2703 2258 2804 
Q 2091 2906 1866 2906 
Q 1506 2906 1245 2678 
Q 984 2450 984 1813 
L 984 0 
L 422 0 
z
" transform="scale(0.015625)"/>
      </defs>
      <use xlink:href="#ArialMT-71"/>
      <use xlink:href="#ArialMT-75" x="55.615234"/>
      <use xlink:href="#ArialMT-69" x="111.230469"/>
      <use xlink:href="#ArialMT-6e" x="133.447266"/>
      <use xlink:href="#ArialMT-74" x="189.0625"/>
      <use xlink:href="#ArialMT-61" x="216.845703"/>
      <use xlink:href="#ArialMT-6e" x="272.460938"/>
      <use xlink:href="#ArialMT-61" x="328.076172"/>
      <use xlink:href="#ArialMT-20" x="383.691406"/>
      <use xlink:href="#ArialMT-72" x="411.474609"/>
      <use xlink:href="#ArialMT-6f" x="444.775391"/>
      <use xlink:href="#ArialMT-6f" x="500.390625"/>
     </g>
    </g>
    <g id="patch_21">
     <path d="M 178.003875 138.4125 
L 265.238625 138.4125 
L 265.238625 124.0125 
L 178.003875 124.0125 
z
" style="fill: #ceecc8; stroke: #000000; stroke-linejoin: miter"/>
    </g>
    <g id="text_20">
     <!-- $902,683 -->
     <g transform="translate(200.768906 133.841406) scale(0.1 -0.1)">
      <use xlink:href="#ArialMT-24"/>
      <use xlink:href="#ArialMT-39" x="55.615234"/>
      <use xlink:href="#ArialMT-30" x="111.230469"/>
      <use xlink:href="#ArialMT-32" x="166.845703"/>
      <use xlink:href="#ArialMT-2c" x="222.460938"/>
      <use xlink:href="#ArialMT-36" x="250.244141"/>
      <use xlink:href="#ArialMT-38" x="305.859375"/>
      <use xlink:href="#ArialMT-33" x="361.474609"/>
     </g>
    </g>
    <g id="patch_22">
     <path d="M 70.615125 152.8125 
L 83.961375 152.8125 
L 83.961375 138.4125 
L 70.615125 138.4125 
z
" style="fill: #ffffff; stroke: #000000; stroke-linejoin: miter"/>
    </g>
    <g id="text_21">
     <!-- 6 -->
     <g style="fill: #262626" transform="translate(71.94975 148.197656) scale(0.1 -0.1)">
      <use xlink:href="#ArialMT-36"/>
     </g>
    </g>
    <g id="patch_23">
     <path d="M 83.961375 152.8125 
L 178.003875 152.8125 
L 178.003875 138.4125 
L 83.961375 138.4125 
z
" style="fill: #ffffff; stroke: #000000; stroke-linejoin: miter"/>
    </g>
    <g id="text_22">
     <!-- méxico -->
     <g style="fill: #262626" transform="translate(115.145906 148.197656) scale(0.1 -0.1)">
      <use xlink:href="#ArialMT-6d"/>
      <use xlink:href="#ArialMT-e9" x="83.300781"/>
      <use xlink:href="#ArialMT-78" x="138.916016"/>
      <use xlink:href="#ArialMT-69" x="188.916016"/>
      <use xlink:href="#ArialMT-63" x="211.132812"/>
      <use xlink:href="#ArialMT-6f" x="261.132812"/>
     </g>
    </g>
    <g id="patch_24">
     <path d="M 178.003875 152.8125 
L 265.238625 152.8125 
L 265.238625 138.4125 
L 178.003875 138.4125 
z
" style="fill: #d4eece; stroke: #000000; stroke-linejoin: miter"/>
    </g>
    <g id="text_23">
     <!-- $797,599 -->
     <g transform="translate(200.768906 148.241406) scale(0.1 -0.1)">
      <use xlink:href="#ArialMT-24"/>
      <use xlink:href="#ArialMT-37" x="55.615234"/>
      <use xlink:href="#ArialMT-39" x="111.230469"/>
      <use xlink:href="#ArialMT-37" x="166.845703"/>
      <use xlink:href="#ArialMT-2c" x="222.460938"/>
      <use xlink:href="#ArialMT-35" x="250.244141"/>
      <use xlink:href="#ArialMT-39" x="305.859375"/>
      <use xlink:href="#ArialMT-39" x="361.474609"/>
     </g>
    </g>
    <g id="patch_25">
     <path d="M 70.615125 167.2125 
L 83.961375 167.2125 
L 83.961375 152.8125 
L 70.615125 152.8125 
z
" style="fill: #ffffff; stroke: #000000; stroke-linejoin: miter"/>
    </g>
    <g id="text_24">
     <!-- 7 -->
     <g style="fill: #262626" transform="translate(71.94975 162.597656) scale(0.1 -0.1)">
      <use xlink:href="#ArialMT-37"/>
     </g>
    </g>
    <g id="patch_26">
     <path d="M 83.961375 167.2125 
L 178.003875 167.2125 
L 178.003875 152.8125 
L 83.961375 152.8125 
z
" style="fill: #ffffff; stroke: #000000; stroke-linejoin: miter"/>
    </g>
    <g id="text_25">
     <!-- baja california sur -->
     <g style="fill: #262626" transform="translate(91.79825 162.6) scale(0.1 -0.1)">
      <defs>
       <path id="ArialMT-6a" d="M 419 3928 
L 419 4581 
L 981 4581 
L 981 3928 
L 419 3928 
z
M -294 -1288 
L -188 -809 
Q -19 -853 78 -853 
Q 250 -853 334 -739 
Q 419 -625 419 -169 
L 419 3319 
L 981 3319 
L 981 -181 
Q 981 -794 822 -1034 
Q 619 -1347 147 -1347 
Q -81 -1347 -294 -1288 
z
" transform="scale(0.015625)"/>
       <path id="ArialMT-66" d="M 556 0 
L 556 2881 
L 59 2881 
L 59 3319 
L 556 3319 
L 556 3672 
Q 556 4006 616 4169 
Q 697 4388 901 4523 
Q 1106 4659 1475 4659 
Q 1713 4659 2000 4603 
L 1916 4113 
Q 1741 4144 1584 4144 
Q 1328 4144 1222 4034 
Q 1116 3925 1116 3625 
L 1116 3319 
L 1763 3319 
L 1763 2881 
L 1116 2881 
L 1116 0 
L 556 0 
z
" transform="scale(0.015625)"/>
      </defs>
      <use xlink:href="#ArialMT-62"/>
      <use xlink:href="#ArialMT-61" x="55.615234"/>
      <use xlink:href="#ArialMT-6a" x="111.230469"/>
      <use xlink:href="#ArialMT-61" x="133.447266"/>
      <use xlink:href="#ArialMT-20" x="189.0625"/>
      <use xlink:href="#ArialMT-63" x="216.845703"/>
      <use xlink:href="#ArialMT-61" x="266.845703"/>
      <use xlink:href="#ArialMT-6c" x="322.460938"/>
      <use xlink:href="#ArialMT-69" x="344.677734"/>
      <use xlink:href="#ArialMT-66" x="366.894531"/>
      <use xlink:href="#ArialMT-6f" x="394.677734"/>
      <use xlink:href="#ArialMT-72" x="450.292969"/>
      <use xlink:href="#ArialMT-6e" x="483.59375"/>
      <use xlink:href="#ArialMT-69" x="539.208984"/>
      <use xlink:href="#ArialMT-61" x="561.425781"/>
      <use xlink:href="#ArialMT-20" x="617.041016"/>
      <use xlink:href="#ArialMT-73" x="644.824219"/>
      <use xlink:href="#ArialMT-75" x="694.824219"/>
      <use xlink:href="#ArialMT-72" x="750.439453"/>
     </g>
    </g>
    <g id="patch_27">
     <path d="M 178.003875 167.2125 
L 265.238625 167.2125 
L 265.238625 152.8125 
L 178.003875 152.8125 
z
" style="fill: #d7efd1; stroke: #000000; stroke-linejoin: miter"/>
    </g>
    <g id="text_26">
     <!-- $750,874 -->
     <g transform="translate(200.768906 162.641406) scale(0.1 -0.1)">
      <use xlink:href="#ArialMT-24"/>
      <use xlink:href="#ArialMT-37" x="55.615234"/>
      <use xlink:href="#ArialMT-35" x="111.230469"/>
      <use xlink:href="#ArialMT-30" x="166.845703"/>
      <use xlink:href="#ArialMT-2c" x="222.460938"/>
      <use xlink:href="#ArialMT-38" x="250.244141"/>
      <use xlink:href="#ArialMT-37" x="305.859375"/>
      <use xlink:href="#ArialMT-34" x="361.474609"/>
     </g>
    </g>
    <g id="patch_28">
     <path d="M 70.615125 181.6125 
L 83.961375 181.6125 
L 83.961375 167.2125 
L 70.615125 167.2125 
z
" style="fill: #ffffff; stroke: #000000; stroke-linejoin: miter"/>
    </g>
    <g id="text_27">
     <!-- 8 -->
     <g style="fill: #262626" transform="translate(71.94975 176.997656) scale(0.1 -0.1)">
      <use xlink:href="#ArialMT-38"/>
     </g>
    </g>
    <g id="patch_29">
     <path d="M 83.961375 181.6125 
L 178.003875 181.6125 
L 178.003875 167.2125 
L 83.961375 167.2125 
z
" style="fill: #ffffff; stroke: #000000; stroke-linejoin: miter"/>
    </g>
    <g id="text_28">
     <!-- veracruz -->
     <g style="fill: #262626" transform="translate(111.811531 176.997656) scale(0.1 -0.1)">
      <use xlink:href="#ArialMT-76"/>
      <use xlink:href="#ArialMT-65" x="50"/>
      <use xlink:href="#ArialMT-72" x="105.615234"/>
      <use xlink:href="#ArialMT-61" x="138.916016"/>
      <use xlink:href="#ArialMT-63" x="194.53125"/>
      <use xlink:href="#ArialMT-72" x="244.53125"/>
      <use xlink:href="#ArialMT-75" x="277.832031"/>
      <use xlink:href="#ArialMT-7a" x="333.447266"/>
     </g>
    </g>
    <g id="patch_30">
     <path d="M 178.003875 181.6125 
L 265.238625 181.6125 
L 265.238625 167.2125 
L 178.003875 167.2125 
z
" style="fill: #def2d9; stroke: #000000; stroke-linejoin: miter"/>
    </g>
    <g id="text_29">
     <!-- $622,518 -->
     <g transform="translate(200.768906 177.041406) scale(0.1 -0.1)">
      <use xlink:href="#ArialMT-24"/>
      <use xlink:href="#ArialMT-36" x="55.615234"/>
      <use xlink:href="#ArialMT-32" x="111.230469"/>
      <use xlink:href="#ArialMT-32" x="166.845703"/>
      <use xlink:href="#ArialMT-2c" x="222.460938"/>
      <use xlink:href="#ArialMT-35" x="250.244141"/>
      <use xlink:href="#ArialMT-31" x="305.859375"/>
      <use xlink:href="#ArialMT-38" x="361.474609"/>
     </g>
    </g>
    <g id="patch_31">
     <path d="M 70.615125 196.0125 
L 83.961375 196.0125 
L 83.961375 181.6125 
L 70.615125 181.6125 
z
" style="fill: #ffffff; stroke: #000000; stroke-linejoin: miter"/>
    </g>
    <g id="text_30">
     <!-- 9 -->
     <g style="fill: #262626" transform="translate(71.94975 191.397656) scale(0.1 -0.1)">
      <use xlink:href="#ArialMT-39"/>
     </g>
    </g>
    <g id="patch_32">
     <path d="M 83.961375 196.0125 
L 178.003875 196.0125 
L 178.003875 181.6125 
L 83.961375 181.6125 
z
" style="fill: #ffffff; stroke: #000000; stroke-linejoin: miter"/>
    </g>
    <g id="text_31">
     <!-- puebla -->
     <g style="fill: #262626" transform="translate(115.969344 191.397656) scale(0.1 -0.1)">
      <use xlink:href="#ArialMT-70"/>
      <use xlink:href="#ArialMT-75" x="55.615234"/>
      <use xlink:href="#ArialMT-65" x="111.230469"/>
      <use xlink:href="#ArialMT-62" x="166.845703"/>
      <use xlink:href="#ArialMT-6c" x="222.460938"/>
      <use xlink:href="#ArialMT-61" x="244.677734"/>
     </g>
    </g>
    <g id="patch_33">
     <path d="M 178.003875 196.0125 
L 265.238625 196.0125 
L 265.238625 181.6125 
L 178.003875 181.6125 
z
" style="fill: #e2f4dd; stroke: #000000; stroke-linejoin: miter"/>
    </g>
    <g id="text_32">
     <!-- $570,204 -->
     <g transform="translate(200.768906 191.441406) scale(0.1 -0.1)">
      <use xlink:href="#ArialMT-24"/>
      <use xlink:href="#ArialMT-35" x="55.615234"/>
      <use xlink:href="#ArialMT-37" x="111.230469"/>
      <use xlink:href="#ArialMT-30" x="166.845703"/>
      <use xlink:href="#ArialMT-2c" x="222.460938"/>
      <use xlink:href="#ArialMT-32" x="250.244141"/>
      <use xlink:href="#ArialMT-30" x="305.859375"/>
      <use xlink:href="#ArialMT-34" x="361.474609"/>
     </g>
    </g>
    <g id="patch_34">
     <path d="M 70.615125 210.4125 
L 83.961375 210.4125 
L 83.961375 196.0125 
L 70.615125 196.0125 
z
" style="fill: #ffffff; stroke: #000000; stroke-linejoin: miter"/>
    </g>
    <g id="text_33">
     <!-- 10 -->
     <g style="fill: #262626" transform="translate(71.94975 205.797656) scale(0.1 -0.1)">
      <use xlink:href="#ArialMT-31"/>
      <use xlink:href="#ArialMT-30" x="55.615234"/>
     </g>
    </g>
    <g id="patch_35">
     <path d="M 83.961375 210.4125 
L 178.003875 210.4125 
L 178.003875 196.0125 
L 83.961375 196.0125 
z
" style="fill: #ffffff; stroke: #000000; stroke-linejoin: miter"/>
    </g>
    <g id="text_34">
     <!-- yucatán -->
     <g style="fill: #262626" transform="translate(113.471688 205.758594) scale(0.1 -0.1)">
      <defs>
       <path id="ArialMT-79" d="M 397 -1278 
L 334 -750 
Q 519 -800 656 -800 
Q 844 -800 956 -737 
Q 1069 -675 1141 -563 
Q 1194 -478 1313 -144 
Q 1328 -97 1363 -6 
L 103 3319 
L 709 3319 
L 1400 1397 
Q 1534 1031 1641 628 
Q 1738 1016 1872 1384 
L 2581 3319 
L 3144 3319 
L 1881 -56 
Q 1678 -603 1566 -809 
Q 1416 -1088 1222 -1217 
Q 1028 -1347 759 -1347 
Q 597 -1347 397 -1278 
z
" transform="scale(0.015625)"/>
       <path id="ArialMT-e1" d="M 2588 409 
Q 2275 144 1986 34 
Q 1697 -75 1366 -75 
Q 819 -75 525 192 
Q 231 459 231 875 
Q 231 1119 342 1320 
Q 453 1522 633 1644 
Q 813 1766 1038 1828 
Q 1203 1872 1538 1913 
Q 2219 1994 2541 2106 
Q 2544 2222 2544 2253 
Q 2544 2597 2384 2738 
Q 2169 2928 1744 2928 
Q 1347 2928 1158 2789 
Q 969 2650 878 2297 
L 328 2372 
Q 403 2725 575 2942 
Q 747 3159 1072 3276 
Q 1397 3394 1825 3394 
Q 2250 3394 2515 3294 
Q 2781 3194 2906 3042 
Q 3031 2891 3081 2659 
Q 3109 2516 3109 2141 
L 3109 1391 
Q 3109 606 3145 398 
Q 3181 191 3288 0 
L 2700 0 
Q 2613 175 2588 409 
z
M 2541 1666 
Q 2234 1541 1622 1453 
Q 1275 1403 1131 1340 
Q 988 1278 909 1158 
Q 831 1038 831 891 
Q 831 666 1001 516 
Q 1172 366 1500 366 
Q 1825 366 2078 508 
Q 2331 650 2450 897 
Q 2541 1088 2541 1459 
L 2541 1666 
z
M 1446 3731 
L 1861 4606 
L 2599 4606 
L 1911 3731 
L 1446 3731 
z
" transform="scale(0.015625)"/>
      </defs>
      <use xlink:href="#ArialMT-79"/>
      <use xlink:href="#ArialMT-75" x="50"/>
      <use xlink:href="#ArialMT-63" x="105.615234"/>
      <use xlink:href="#ArialMT-61" x="155.615234"/>
      <use xlink:href="#ArialMT-74" x="211.230469"/>
      <use xlink:href="#ArialMT-e1" x="239.013672"/>
      <use xlink:href="#ArialMT-6e" x="294.628906"/>
     </g>
    </g>
    <g id="patch_36">
     <path d="M 178.003875 210.4125 
L 265.238625 210.4125 
L 265.238625 196.0125 
L 178.003875 196.0125 
z
" style="fill: #e6f5e1; stroke: #000000; stroke-linejoin: miter"/>
    </g>
    <g id="text_35">
     <!-- $478,268 -->
     <g transform="translate(200.768906 205.841406) scale(0.1 -0.1)">
      <use xlink:href="#ArialMT-24"/>
      <use xlink:href="#ArialMT-34" x="55.615234"/>
      <use xlink:href="#ArialMT-37" x="111.230469"/>
      <use xlink:href="#ArialMT-38" x="166.845703"/>
      <use xlink:href="#ArialMT-2c" x="222.460938"/>
      <use xlink:href="#ArialMT-32" x="250.244141"/>
      <use xlink:href="#ArialMT-36" x="305.859375"/>
      <use xlink:href="#ArialMT-38" x="361.474609"/>
     </g>
    </g>
    <g id="patch_37">
     <path d="M 70.615125 224.8125 
L 83.961375 224.8125 
L 83.961375 210.4125 
L 70.615125 210.4125 
z
" style="fill: #ffffff; stroke: #000000; stroke-linejoin: miter"/>
    </g>
    <g id="text_36">
     <!-- 11 -->
     <g style="fill: #262626" transform="translate(71.94975 220.197656) scale(0.1 -0.1)">
      <use xlink:href="#ArialMT-31"/>
      <use xlink:href="#ArialMT-31" x="48.240234"/>
     </g>
    </g>
    <g id="patch_38">
     <path d="M 83.961375 224.8125 
L 178.003875 224.8125 
L 178.003875 210.4125 
L 83.961375 210.4125 
z
" style="fill: #ffffff; stroke: #000000; stroke-linejoin: miter"/>
    </g>
    <g id="text_37">
     <!-- méxico -->
     <g style="fill: #262626" transform="translate(115.145906 220.197656) scale(0.1 -0.1)">
      <use xlink:href="#ArialMT-6d"/>
      <use xlink:href="#ArialMT-e9" x="83.300781"/>
      <use xlink:href="#ArialMT-78" x="138.916016"/>
      <use xlink:href="#ArialMT-69" x="188.916016"/>
      <use xlink:href="#ArialMT-63" x="211.132812"/>
      <use xlink:href="#ArialMT-6f" x="261.132812"/>
     </g>
    </g>
    <g id="patch_39">
     <path d="M 178.003875 224.8125 
L 265.238625 224.8125 
L 265.238625 210.4125 
L 178.003875 210.4125 
z
" style="fill: #e6f5e1; stroke: #000000; stroke-linejoin: miter"/>
    </g>
    <g id="text_38">
     <!-- $475,540 -->
     <g transform="translate(200.768906 220.241406) scale(0.1 -0.1)">
      <use xlink:href="#ArialMT-24"/>
      <use xlink:href="#ArialMT-34" x="55.615234"/>
      <use xlink:href="#ArialMT-37" x="111.230469"/>
      <use xlink:href="#ArialMT-35" x="166.845703"/>
      <use xlink:href="#ArialMT-2c" x="222.460938"/>
      <use xlink:href="#ArialMT-35" x="250.244141"/>
      <use xlink:href="#ArialMT-34" x="305.859375"/>
      <use xlink:href="#ArialMT-30" x="361.474609"/>
     </g>
    </g>
    <g id="patch_40">
     <path d="M 70.615125 239.2125 
L 83.961375 239.2125 
L 83.961375 224.8125 
L 70.615125 224.8125 
z
" style="fill: #ffffff; stroke: #000000; stroke-linejoin: miter"/>
    </g>
    <g id="text_39">
     <!-- 12 -->
     <g style="fill: #262626" transform="translate(71.94975 234.597656) scale(0.1 -0.1)">
      <use xlink:href="#ArialMT-31"/>
      <use xlink:href="#ArialMT-32" x="55.615234"/>
     </g>
    </g>
    <g id="patch_41">
     <path d="M 83.961375 239.2125 
L 178.003875 239.2125 
L 178.003875 224.8125 
L 83.961375 224.8125 
z
" style="fill: #ffffff; stroke: #000000; stroke-linejoin: miter"/>
    </g>
    <g id="text_40">
     <!-- jalisco -->
     <g style="fill: #262626" transform="translate(117.088875 234.539063) scale(0.1 -0.1)">
      <use xlink:href="#ArialMT-6a"/>
      <use xlink:href="#ArialMT-61" x="22.216797"/>
      <use xlink:href="#ArialMT-6c" x="77.832031"/>
      <use xlink:href="#ArialMT-69" x="100.048828"/>
      <use xlink:href="#ArialMT-73" x="122.265625"/>
      <use xlink:href="#ArialMT-63" x="172.265625"/>
      <use xlink:href="#ArialMT-6f" x="222.265625"/>
     </g>
    </g>
    <g id="patch_42">
     <path d="M 178.003875 239.2125 
L 265.238625 239.2125 
L 265.238625 224.8125 
L 178.003875 224.8125 
z
" style="fill: #e8f6e3; stroke: #000000; stroke-linejoin: miter"/>
    </g>
    <g id="text_41">
     <!-- $430,815 -->
     <g transform="translate(200.768906 234.641406) scale(0.1 -0.1)">
      <use xlink:href="#ArialMT-24"/>
      <use xlink:href="#ArialMT-34" x="55.615234"/>
      <use xlink:href="#ArialMT-33" x="111.230469"/>
      <use xlink:href="#ArialMT-30" x="166.845703"/>
      <use xlink:href="#ArialMT-2c" x="222.460938"/>
      <use xlink:href="#ArialMT-38" x="250.244141"/>
      <use xlink:href="#ArialMT-31" x="305.859375"/>
      <use xlink:href="#ArialMT-35" x="361.474609"/>
     </g>
    </g>
    <g id="patch_43">
     <path d="M 70.615125 253.6125 
L 83.961375 253.6125 
L 83.961375 239.2125 
L 70.615125 239.2125 
z
" style="fill: #ffffff; stroke: #000000; stroke-linejoin: miter"/>
    </g>
    <g id="text_42">
     <!-- 13 -->
     <g style="fill: #262626" transform="translate(71.94975 248.997656) scale(0.1 -0.1)">
      <use xlink:href="#ArialMT-31"/>
      <use xlink:href="#ArialMT-33" x="55.615234"/>
     </g>
    </g>
    <g id="patch_44">
     <path d="M 83.961375 253.6125 
L 178.003875 253.6125 
L 178.003875 239.2125 
L 83.961375 239.2125 
z
" style="fill: #ffffff; stroke: #000000; stroke-linejoin: miter"/>
    </g>
    <g id="text_43">
     <!-- guanajuato -->
     <g style="fill: #262626" transform="translate(106.238875 248.939063) scale(0.1 -0.1)">
      <defs>
       <path id="ArialMT-67" d="M 319 -275 
L 866 -356 
Q 900 -609 1056 -725 
Q 1266 -881 1628 -881 
Q 2019 -881 2231 -725 
Q 2444 -569 2519 -288 
Q 2563 -116 2559 434 
Q 2191 0 1641 0 
Q 956 0 581 494 
Q 206 988 206 1678 
Q 206 2153 378 2554 
Q 550 2956 876 3175 
Q 1203 3394 1644 3394 
Q 2231 3394 2613 2919 
L 2613 3319 
L 3131 3319 
L 3131 450 
Q 3131 -325 2973 -648 
Q 2816 -972 2473 -1159 
Q 2131 -1347 1631 -1347 
Q 1038 -1347 672 -1080 
Q 306 -813 319 -275 
z
M 784 1719 
Q 784 1066 1043 766 
Q 1303 466 1694 466 
Q 2081 466 2343 764 
Q 2606 1063 2606 1700 
Q 2606 2309 2336 2618 
Q 2066 2928 1684 2928 
Q 1309 2928 1046 2623 
Q 784 2319 784 1719 
z
" transform="scale(0.015625)"/>
      </defs>
      <use xlink:href="#ArialMT-67"/>
      <use xlink:href="#ArialMT-75" x="55.615234"/>
      <use xlink:href="#ArialMT-61" x="111.230469"/>
      <use xlink:href="#ArialMT-6e" x="166.845703"/>
      <use xlink:href="#ArialMT-61" x="222.460938"/>
      <use xlink:href="#ArialMT-6a" x="278.076172"/>
      <use xlink:href="#ArialMT-75" x="300.292969"/>
      <use xlink:href="#ArialMT-61" x="355.908203"/>
      <use xlink:href="#ArialMT-74" x="411.523438"/>
      <use xlink:href="#ArialMT-6f" x="439.306641"/>
     </g>
    </g>
    <g id="patch_45">
     <path d="M 178.003875 253.6125 
L 265.238625 253.6125 
L 265.238625 239.2125 
L 178.003875 239.2125 
z
" style="fill: #e9f7e5; stroke: #000000; stroke-linejoin: miter"/>
    </g>
    <g id="text_44">
     <!-- $408,420 -->
     <g transform="translate(200.768906 249.041406) scale(0.1 -0.1)">
      <use xlink:href="#ArialMT-24"/>
      <use xlink:href="#ArialMT-34" x="55.615234"/>
      <use xlink:href="#ArialMT-30" x="111.230469"/>
      <use xlink:href="#ArialMT-38" x="166.845703"/>
      <use xlink:href="#ArialMT-2c" x="222.460938"/>
      <use xlink:href="#ArialMT-34" x="250.244141"/>
      <use xlink:href="#ArialMT-32" x="305.859375"/>
      <use xlink:href="#ArialMT-30" x="361.474609"/>
     </g>
    </g>
    <g id="patch_46">
     <path d="M 70.615125 268.0125 
L 83.961375 268.0125 
L 83.961375 253.6125 
L 70.615125 253.6125 
z
" style="fill: #ffffff; stroke: #000000; stroke-linejoin: miter"/>
    </g>
    <g id="text_45">
     <!-- 14 -->
     <g style="fill: #262626" transform="translate(71.94975 263.397656) scale(0.1 -0.1)">
      <use xlink:href="#ArialMT-31"/>
      <use xlink:href="#ArialMT-34" x="55.615234"/>
     </g>
    </g>
    <g id="patch_47">
     <path d="M 83.961375 268.0125 
L 178.003875 268.0125 
L 178.003875 253.6125 
L 83.961375 253.6125 
z
" style="fill: #ffffff; stroke: #000000; stroke-linejoin: miter"/>
    </g>
    <g id="text_46">
     <!-- oaxaca -->
     <g style="fill: #262626" transform="translate(114.86075 263.397656) scale(0.1 -0.1)">
      <use xlink:href="#ArialMT-6f"/>
      <use xlink:href="#ArialMT-61" x="55.615234"/>
      <use xlink:href="#ArialMT-78" x="111.230469"/>
      <use xlink:href="#ArialMT-61" x="161.230469"/>
      <use xlink:href="#ArialMT-63" x="216.845703"/>
      <use xlink:href="#ArialMT-61" x="266.845703"/>
     </g>
    </g>
    <g id="patch_48">
     <path d="M 178.003875 268.0125 
L 265.238625 268.0125 
L 265.238625 253.6125 
L 178.003875 253.6125 
z
" style="fill: #edf8ea; stroke: #000000; stroke-linejoin: miter"/>
    </g>
    <g id="text_47">
     <!-- $280,102 -->
     <g transform="translate(200.768906 263.441406) scale(0.1 -0.1)">
      <use xlink:href="#ArialMT-24"/>
      <use xlink:href="#ArialMT-32" x="55.615234"/>
      <use xlink:href="#ArialMT-38" x="111.230469"/>
      <use xlink:href="#ArialMT-30" x="166.845703"/>
      <use xlink:href="#ArialMT-2c" x="222.460938"/>
      <use xlink:href="#ArialMT-31" x="250.244141"/>
      <use xlink:href="#ArialMT-30" x="305.859375"/>
      <use xlink:href="#ArialMT-32" x="361.474609"/>
     </g>
    </g>
    <g id="patch_49">
     <path d="M 70.615125 282.4125 
L 83.961375 282.4125 
L 83.961375 268.0125 
L 70.615125 268.0125 
z
" style="fill: #ffffff; stroke: #000000; stroke-linejoin: miter"/>
    </g>
    <g id="text_48">
     <!-- 15 -->
     <g style="fill: #262626" transform="translate(71.94975 277.797656) scale(0.1 -0.1)">
      <use xlink:href="#ArialMT-31"/>
      <use xlink:href="#ArialMT-35" x="55.615234"/>
     </g>
    </g>
    <g id="patch_50">
     <path d="M 83.961375 282.4125 
L 178.003875 282.4125 
L 178.003875 268.0125 
L 83.961375 268.0125 
z
" style="fill: #ffffff; stroke: #000000; stroke-linejoin: miter"/>
    </g>
    <g id="text_49">
     <!-- morelos -->
     <g style="fill: #262626" transform="translate(113.200594 277.797656) scale(0.1 -0.1)">
      <use xlink:href="#ArialMT-6d"/>
      <use xlink:href="#ArialMT-6f" x="83.300781"/>
      <use xlink:href="#ArialMT-72" x="138.916016"/>
      <use xlink:href="#ArialMT-65" x="172.216797"/>
      <use xlink:href="#ArialMT-6c" x="227.832031"/>
      <use xlink:href="#ArialMT-6f" x="250.048828"/>
      <use xlink:href="#ArialMT-73" x="305.664062"/>
     </g>
    </g>
    <g id="patch_51">
     <path d="M 178.003875 282.4125 
L 265.238625 282.4125 
L 265.238625 268.0125 
L 178.003875 268.0125 
z
" style="fill: #f0f9ec; stroke: #000000; stroke-linejoin: miter"/>
    </g>
    <g id="text_50">
     <!-- $216,004 -->
     <g transform="translate(200.768906 277.841406) scale(0.1 -0.1)">
      <use xlink:href="#ArialMT-24"/>
      <use xlink:href="#ArialMT-32" x="55.615234"/>
      <use xlink:href="#ArialMT-31" x="111.230469"/>
      <use xlink:href="#ArialMT-36" x="166.845703"/>
      <use xlink:href="#ArialMT-2c" x="222.460938"/>
      <use xlink:href="#ArialMT-30" x="250.244141"/>
      <use xlink:href="#ArialMT-30" x="305.859375"/>
      <use xlink:href="#ArialMT-34" x="361.474609"/>
     </g>
    </g>
    <g id="patch_52">
     <path d="M 70.615125 296.8125 
L 83.961375 296.8125 
L 83.961375 282.4125 
L 70.615125 282.4125 
z
" style="fill: #ffffff; stroke: #000000; stroke-linejoin: miter"/>
    </g>
    <g id="text_51">
     <!-- 16 -->
     <g style="fill: #262626" transform="translate(71.94975 292.197656) scale(0.1 -0.1)">
      <use xlink:href="#ArialMT-31"/>
      <use xlink:href="#ArialMT-36" x="55.615234"/>
     </g>
    </g>
    <g id="patch_53">
     <path d="M 83.961375 296.8125 
L 178.003875 296.8125 
L 178.003875 282.4125 
L 83.961375 282.4125 
z
" style="fill: #ffffff; stroke: #000000; stroke-linejoin: miter"/>
    </g>
    <g id="text_52">
     <!-- guerrero -->
     <g style="fill: #262626" transform="translate(112.08575 292.080469) scale(0.1 -0.1)">
      <use xlink:href="#ArialMT-67"/>
      <use xlink:href="#ArialMT-75" x="55.615234"/>
      <use xlink:href="#ArialMT-65" x="111.230469"/>
      <use xlink:href="#ArialMT-72" x="166.845703"/>
      <use xlink:href="#ArialMT-72" x="200.146484"/>
      <use xlink:href="#ArialMT-65" x="233.447266"/>
      <use xlink:href="#ArialMT-72" x="289.0625"/>
      <use xlink:href="#ArialMT-6f" x="322.363281"/>
     </g>
    </g>
    <g id="patch_54">
     <path d="M 178.003875 296.8125 
L 265.238625 296.8125 
L 265.238625 282.4125 
L 178.003875 282.4125 
z
" style="fill: #f0f9ed; stroke: #000000; stroke-linejoin: miter"/>
    </g>
    <g id="text_53">
     <!-- $200,746 -->
     <g transform="translate(200.768906 292.241406) scale(0.1 -0.1)">
      <use xlink:href="#ArialMT-24"/>
      <use xlink:href="#ArialMT-32" x="55.615234"/>
      <use xlink:href="#ArialMT-30" x="111.230469"/>
      <use xlink:href="#ArialMT-30" x="166.845703"/>
      <use xlink:href="#ArialMT-2c" x="222.460938"/>
      <use xlink:href="#ArialMT-37" x="250.244141"/>
      <use xlink:href="#ArialMT-34" x="305.859375"/>
      <use xlink:href="#ArialMT-36" x="361.474609"/>
     </g>
    </g>
    <g id="patch_55">
     <path d="M 70.615125 311.2125 
L 83.961375 311.2125 
L 83.961375 296.8125 
L 70.615125 296.8125 
z
" style="fill: #ffffff; stroke: #000000; stroke-linejoin: miter"/>
    </g>
    <g id="text_54">
     <!-- 17 -->
     <g style="fill: #262626" transform="translate(71.94975 306.597656) scale(0.1 -0.1)">
      <use xlink:href="#ArialMT-31"/>
      <use xlink:href="#ArialMT-37" x="55.615234"/>
     </g>
    </g>
    <g id="patch_56">
     <path d="M 83.961375 311.2125 
L 178.003875 311.2125 
L 178.003875 296.8125 
L 83.961375 296.8125 
z
" style="fill: #ffffff; stroke: #000000; stroke-linejoin: miter"/>
    </g>
    <g id="text_55">
     <!-- campeche -->
     <g style="fill: #262626" transform="translate(107.915438 306.597656) scale(0.1 -0.1)">
      <use xlink:href="#ArialMT-63"/>
      <use xlink:href="#ArialMT-61" x="50"/>
      <use xlink:href="#ArialMT-6d" x="105.615234"/>
      <use xlink:href="#ArialMT-70" x="188.916016"/>
      <use xlink:href="#ArialMT-65" x="244.53125"/>
      <use xlink:href="#ArialMT-63" x="300.146484"/>
      <use xlink:href="#ArialMT-68" x="350.146484"/>
      <use xlink:href="#ArialMT-65" x="405.761719"/>
     </g>
    </g>
    <g id="patch_57">
     <path d="M 178.003875 311.2125 
L 265.238625 311.2125 
L 265.238625 296.8125 
L 178.003875 296.8125 
z
" style="fill: #f1faee; stroke: #000000; stroke-linejoin: miter"/>
    </g>
    <g id="text_56">
     <!-- $189,036 -->
     <g transform="translate(200.768906 306.641406) scale(0.1 -0.1)">
      <use xlink:href="#ArialMT-24"/>
      <use xlink:href="#ArialMT-31" x="55.615234"/>
      <use xlink:href="#ArialMT-38" x="111.230469"/>
      <use xlink:href="#ArialMT-39" x="166.845703"/>
      <use xlink:href="#ArialMT-2c" x="222.460938"/>
      <use xlink:href="#ArialMT-30" x="250.244141"/>
      <use xlink:href="#ArialMT-33" x="305.859375"/>
      <use xlink:href="#ArialMT-36" x="361.474609"/>
     </g>
    </g>
    <g id="patch_58">
     <path d="M 70.615125 325.6125 
L 83.961375 325.6125 
L 83.961375 311.2125 
L 70.615125 311.2125 
z
" style="fill: #ffffff; stroke: #000000; stroke-linejoin: miter"/>
    </g>
    <g id="text_57">
     <!-- 18 -->
     <g style="fill: #262626" transform="translate(71.94975 320.997656) scale(0.1 -0.1)">
      <use xlink:href="#ArialMT-31"/>
      <use xlink:href="#ArialMT-38" x="55.615234"/>
     </g>
    </g>
    <g id="patch_59">
     <path d="M 83.961375 325.6125 
L 178.003875 325.6125 
L 178.003875 311.2125 
L 83.961375 311.2125 
z
" style="fill: #ffffff; stroke: #000000; stroke-linejoin: miter"/>
    </g>
    <g id="text_58">
     <!-- hidalgo -->
     <g style="fill: #262626" transform="translate(114.858406 320.939063) scale(0.1 -0.1)">
      <use xlink:href="#ArialMT-68"/>
      <use xlink:href="#ArialMT-69" x="55.615234"/>
      <use xlink:href="#ArialMT-64" x="77.832031"/>
      <use xlink:href="#ArialMT-61" x="133.447266"/>
      <use xlink:href="#ArialMT-6c" x="189.0625"/>
      <use xlink:href="#ArialMT-67" x="211.279297"/>
      <use xlink:href="#ArialMT-6f" x="266.894531"/>
     </g>
    </g>
    <g id="patch_60">
     <path d="M 178.003875 325.6125 
L 265.238625 325.6125 
L 265.238625 311.2125 
L 178.003875 311.2125 
z
" style="fill: #f1faee; stroke: #000000; stroke-linejoin: miter"/>
    </g>
    <g id="text_59">
     <!-- $180,348 -->
     <g transform="translate(200.768906 321.041406) scale(0.1 -0.1)">
      <use xlink:href="#ArialMT-24"/>
      <use xlink:href="#ArialMT-31" x="55.615234"/>
      <use xlink:href="#ArialMT-38" x="111.230469"/>
      <use xlink:href="#ArialMT-30" x="166.845703"/>
      <use xlink:href="#ArialMT-2c" x="222.460938"/>
      <use xlink:href="#ArialMT-33" x="250.244141"/>
      <use xlink:href="#ArialMT-34" x="305.859375"/>
      <use xlink:href="#ArialMT-38" x="361.474609"/>
     </g>
    </g>
    <g id="patch_61">
     <path d="M 70.615125 340.0125 
L 83.961375 340.0125 
L 83.961375 325.6125 
L 70.615125 325.6125 
z
" style="fill: #ffffff; stroke: #000000; stroke-linejoin: miter"/>
    </g>
    <g id="text_60">
     <!-- 19 -->
     <g style="fill: #262626" transform="translate(71.94975 335.397656) scale(0.1 -0.1)">
      <use xlink:href="#ArialMT-31"/>
      <use xlink:href="#ArialMT-39" x="55.615234"/>
     </g>
    </g>
    <g id="patch_62">
     <path d="M 83.961375 340.0125 
L 178.003875 340.0125 
L 178.003875 325.6125 
L 83.961375 325.6125 
z
" style="fill: #ffffff; stroke: #000000; stroke-linejoin: miter"/>
    </g>
    <g id="text_61">
     <!-- san luis potosí -->
     <g style="fill: #262626" transform="translate(99.021688 335.417188) scale(0.1 -0.1)">
      <defs>
       <path id="ArialMT-ed" d="M 619 0 
L 619 3319 
L 1181 3319 
L 1181 0 
L 619 0 
z
M 590 3731 
L 1005 4606 
L 1743 4606 
L 1055 3731 
L 590 3731 
z
" transform="scale(0.015625)"/>
      </defs>
      <use xlink:href="#ArialMT-73"/>
      <use xlink:href="#ArialMT-61" x="50"/>
      <use xlink:href="#ArialMT-6e" x="105.615234"/>
      <use xlink:href="#ArialMT-20" x="161.230469"/>
      <use xlink:href="#ArialMT-6c" x="189.013672"/>
      <use xlink:href="#ArialMT-75" x="211.230469"/>
      <use xlink:href="#ArialMT-69" x="266.845703"/>
      <use xlink:href="#ArialMT-73" x="289.0625"/>
      <use xlink:href="#ArialMT-20" x="339.0625"/>
      <use xlink:href="#ArialMT-70" x="366.845703"/>
      <use xlink:href="#ArialMT-6f" x="422.460938"/>
      <use xlink:href="#ArialMT-74" x="478.076172"/>
      <use xlink:href="#ArialMT-6f" x="505.859375"/>
      <use xlink:href="#ArialMT-73" x="561.474609"/>
      <use xlink:href="#ArialMT-ed" x="611.474609"/>
     </g>
    </g>
    <g id="patch_63">
     <path d="M 178.003875 340.0125 
L 265.238625 340.0125 
L 265.238625 325.6125 
L 178.003875 325.6125 
z
" style="fill: #f2faef; stroke: #000000; stroke-linejoin: miter"/>
    </g>
    <g id="text_62">
     <!-- $145,337 -->
     <g transform="translate(200.768906 335.441406) scale(0.1 -0.1)">
      <use xlink:href="#ArialMT-24"/>
      <use xlink:href="#ArialMT-31" x="55.615234"/>
      <use xlink:href="#ArialMT-34" x="111.230469"/>
      <use xlink:href="#ArialMT-35" x="166.845703"/>
      <use xlink:href="#ArialMT-2c" x="222.460938"/>
      <use xlink:href="#ArialMT-33" x="250.244141"/>
      <use xlink:href="#ArialMT-33" x="305.859375"/>
      <use xlink:href="#ArialMT-37" x="361.474609"/>
     </g>
    </g>
    <g id="patch_64">
     <path d="M 70.615125 354.4125 
L 83.961375 354.4125 
L 83.961375 340.0125 
L 70.615125 340.0125 
z
" style="fill: #ffffff; stroke: #000000; stroke-linejoin: miter"/>
    </g>
    <g id="text_63">
     <!-- 20 -->
     <g style="fill: #262626" transform="translate(71.94975 349.797656) scale(0.1 -0.1)">
      <use xlink:href="#ArialMT-32"/>
      <use xlink:href="#ArialMT-30" x="55.615234"/>
     </g>
    </g>
    <g id="patch_65">
     <path d="M 83.961375 354.4125 
L 178.003875 354.4125 
L 178.003875 340.0125 
L 83.961375 340.0125 
z
" style="fill: #ffffff; stroke: #000000; stroke-linejoin: miter"/>
    </g>
    <g id="text_64">
     <!-- querétaro -->
     <g style="fill: #262626" transform="translate(109.581063 349.817188) scale(0.1 -0.1)">
      <use xlink:href="#ArialMT-71"/>
      <use xlink:href="#ArialMT-75" x="55.615234"/>
      <use xlink:href="#ArialMT-65" x="111.230469"/>
      <use xlink:href="#ArialMT-72" x="166.845703"/>
      <use xlink:href="#ArialMT-e9" x="200.146484"/>
      <use xlink:href="#ArialMT-74" x="255.761719"/>
      <use xlink:href="#ArialMT-61" x="283.544922"/>
      <use xlink:href="#ArialMT-72" x="339.160156"/>
      <use xlink:href="#ArialMT-6f" x="372.460938"/>
     </g>
    </g>
    <g id="patch_66">
     <path d="M 178.003875 354.4125 
L 265.238625 354.4125 
L 265.238625 340.0125 
L 178.003875 340.0125 
z
" style="fill: #f2faf0; stroke: #000000; stroke-linejoin: miter"/>
    </g>
    <g id="text_65">
     <!-- $139,481 -->
     <g transform="translate(200.768906 349.841406) scale(0.1 -0.1)">
      <use xlink:href="#ArialMT-24"/>
      <use xlink:href="#ArialMT-31" x="55.615234"/>
      <use xlink:href="#ArialMT-33" x="111.230469"/>
      <use xlink:href="#ArialMT-39" x="166.845703"/>
      <use xlink:href="#ArialMT-2c" x="222.460938"/>
      <use xlink:href="#ArialMT-34" x="250.244141"/>
      <use xlink:href="#ArialMT-38" x="305.859375"/>
      <use xlink:href="#ArialMT-31" x="361.474609"/>
     </g>
    </g>
    <g id="patch_67">
     <path d="M 70.615125 368.8125 
L 83.961375 368.8125 
L 83.961375 354.4125 
L 70.615125 354.4125 
z
" style="fill: #ffffff; stroke: #000000; stroke-linejoin: miter"/>
    </g>
    <g id="text_66">
     <!-- 21 -->
     <g style="fill: #262626" transform="translate(71.94975 364.197656) scale(0.1 -0.1)">
      <use xlink:href="#ArialMT-32"/>
      <use xlink:href="#ArialMT-31" x="55.615234"/>
     </g>
    </g>
    <g id="patch_68">
     <path d="M 83.961375 368.8125 
L 178.003875 368.8125 
L 178.003875 354.4125 
L 83.961375 354.4125 
z
" style="fill: #ffffff; stroke: #000000; stroke-linejoin: miter"/>
    </g>
    <g id="text_67">
     <!-- tlaxcala -->
     <g style="fill: #262626" transform="translate(114.030281 364.197656) scale(0.1 -0.1)">
      <use xlink:href="#ArialMT-74"/>
      <use xlink:href="#ArialMT-6c" x="27.783203"/>
      <use xlink:href="#ArialMT-61" x="50"/>
      <use xlink:href="#ArialMT-78" x="105.615234"/>
      <use xlink:href="#ArialMT-63" x="155.615234"/>
      <use xlink:href="#ArialMT-61" x="205.615234"/>
      <use xlink:href="#ArialMT-6c" x="261.230469"/>
      <use xlink:href="#ArialMT-61" x="283.447266"/>
     </g>
    </g>
    <g id="patch_69">
     <path d="M 178.003875 368.8125 
L 265.238625 368.8125 
L 265.238625 354.4125 
L 178.003875 354.4125 
z
" style="fill: #f2faf0; stroke: #000000; stroke-linejoin: miter"/>
    </g>
    <g id="text_68">
     <!-- $127,349 -->
     <g transform="translate(200.768906 364.241406) scale(0.1 -0.1)">
      <use xlink:href="#ArialMT-24"/>
      <use xlink:href="#ArialMT-31" x="55.615234"/>
      <use xlink:href="#ArialMT-32" x="111.230469"/>
      <use xlink:href="#ArialMT-37" x="166.845703"/>
      <use xlink:href="#ArialMT-2c" x="222.460938"/>
      <use xlink:href="#ArialMT-33" x="250.244141"/>
      <use xlink:href="#ArialMT-34" x="305.859375"/>
      <use xlink:href="#ArialMT-39" x="361.474609"/>
     </g>
    </g>
    <g id="patch_70">
     <path d="M 70.615125 383.2125 
L 83.961375 383.2125 
L 83.961375 368.8125 
L 70.615125 368.8125 
z
" style="fill: #ffffff; stroke: #000000; stroke-linejoin: miter"/>
    </g>
    <g id="text_69">
     <!-- 22 -->
     <g style="fill: #262626" transform="translate(71.94975 378.597656) scale(0.1 -0.1)">
      <use xlink:href="#ArialMT-32"/>
      <use xlink:href="#ArialMT-32" x="55.615234"/>
     </g>
    </g>
    <g id="patch_71">
     <path d="M 83.961375 383.2125 
L 178.003875 383.2125 
L 178.003875 368.8125 
L 83.961375 368.8125 
z
" style="fill: #ffffff; stroke: #000000; stroke-linejoin: miter"/>
    </g>
    <g id="text_70">
     <!-- puebla -->
     <g style="fill: #262626" transform="translate(115.969344 378.597656) scale(0.1 -0.1)">
      <use xlink:href="#ArialMT-70"/>
      <use xlink:href="#ArialMT-75" x="55.615234"/>
      <use xlink:href="#ArialMT-65" x="111.230469"/>
      <use xlink:href="#ArialMT-62" x="166.845703"/>
      <use xlink:href="#ArialMT-6c" x="222.460938"/>
      <use xlink:href="#ArialMT-61" x="244.677734"/>
     </g>
    </g>
    <g id="patch_72">
     <path d="M 178.003875 383.2125 
L 265.238625 383.2125 
L 265.238625 368.8125 
L 178.003875 368.8125 
z
" style="fill: #f3faf0; stroke: #000000; stroke-linejoin: miter"/>
    </g>
    <g id="text_71">
     <!-- $124,690 -->
     <g transform="translate(200.768906 378.641406) scale(0.1 -0.1)">
      <use xlink:href="#ArialMT-24"/>
      <use xlink:href="#ArialMT-31" x="55.615234"/>
      <use xlink:href="#ArialMT-32" x="111.230469"/>
      <use xlink:href="#ArialMT-34" x="166.845703"/>
      <use xlink:href="#ArialMT-2c" x="222.460938"/>
      <use xlink:href="#ArialMT-36" x="250.244141"/>
      <use xlink:href="#ArialMT-39" x="305.859375"/>
      <use xlink:href="#ArialMT-30" x="361.474609"/>
     </g>
    </g>
    <g id="patch_73">
     <path d="M 70.615125 397.6125 
L 83.961375 397.6125 
L 83.961375 383.2125 
L 70.615125 383.2125 
z
" style="fill: #ffffff; stroke: #000000; stroke-linejoin: miter"/>
    </g>
    <g id="text_72">
     <!-- 23 -->
     <g style="fill: #262626" transform="translate(71.94975 392.997656) scale(0.1 -0.1)">
      <use xlink:href="#ArialMT-32"/>
      <use xlink:href="#ArialMT-33" x="55.615234"/>
     </g>
    </g>
    <g id="patch_74">
     <path d="M 83.961375 397.6125 
L 178.003875 397.6125 
L 178.003875 383.2125 
L 83.961375 383.2125 
z
" style="fill: #ffffff; stroke: #000000; stroke-linejoin: miter"/>
    </g>
    <g id="text_73">
     <!-- nayarit -->
     <g style="fill: #262626" transform="translate(115.976375 392.939063) scale(0.1 -0.1)">
      <use xlink:href="#ArialMT-6e"/>
      <use xlink:href="#ArialMT-61" x="55.615234"/>
      <use xlink:href="#ArialMT-79" x="111.230469"/>
      <use xlink:href="#ArialMT-61" x="161.230469"/>
      <use xlink:href="#ArialMT-72" x="216.845703"/>
      <use xlink:href="#ArialMT-69" x="250.146484"/>
      <use xlink:href="#ArialMT-74" x="272.363281"/>
     </g>
    </g>
    <g id="patch_75">
     <path d="M 178.003875 397.6125 
L 265.238625 397.6125 
L 265.238625 383.2125 
L 178.003875 383.2125 
z
" style="fill: #f3faf0; stroke: #000000; stroke-linejoin: miter"/>
    </g>
    <g id="text_74">
     <!-- $119,163 -->
     <g transform="translate(201.137656 393.041406) scale(0.1 -0.1)">
      <use xlink:href="#ArialMT-24"/>
      <use xlink:href="#ArialMT-31" x="55.615234"/>
      <use xlink:href="#ArialMT-31" x="103.855469"/>
      <use xlink:href="#ArialMT-39" x="159.470703"/>
      <use xlink:href="#ArialMT-2c" x="215.085938"/>
      <use xlink:href="#ArialMT-31" x="242.869141"/>
      <use xlink:href="#ArialMT-36" x="298.484375"/>
      <use xlink:href="#ArialMT-33" x="354.099609"/>
     </g>
    </g>
    <g id="patch_76">
     <path d="M 70.615125 412.0125 
L 83.961375 412.0125 
L 83.961375 397.6125 
L 70.615125 397.6125 
z
" style="fill: #ffffff; stroke: #000000; stroke-linejoin: miter"/>
    </g>
    <g id="text_75">
     <!-- 24 -->
     <g style="fill: #262626" transform="translate(71.94975 407.397656) scale(0.1 -0.1)">
      <use xlink:href="#ArialMT-32"/>
      <use xlink:href="#ArialMT-34" x="55.615234"/>
     </g>
    </g>
    <g id="patch_77">
     <path d="M 83.961375 412.0125 
L 178.003875 412.0125 
L 178.003875 397.6125 
L 83.961375 397.6125 
z
" style="fill: #ffffff; stroke: #000000; stroke-linejoin: miter"/>
    </g>
    <g id="text_76">
     <!-- ciudad de méxico -->
     <g style="fill: #262626" transform="translate(92.074031 407.397656) scale(0.1 -0.1)">
      <use xlink:href="#ArialMT-63"/>
      <use xlink:href="#ArialMT-69" x="50"/>
      <use xlink:href="#ArialMT-75" x="72.216797"/>
      <use xlink:href="#ArialMT-64" x="127.832031"/>
      <use xlink:href="#ArialMT-61" x="183.447266"/>
      <use xlink:href="#ArialMT-64" x="239.0625"/>
      <use xlink:href="#ArialMT-20" x="294.677734"/>
      <use xlink:href="#ArialMT-64" x="322.460938"/>
      <use xlink:href="#ArialMT-65" x="378.076172"/>
      <use xlink:href="#ArialMT-20" x="433.691406"/>
      <use xlink:href="#ArialMT-6d" x="461.474609"/>
      <use xlink:href="#ArialMT-e9" x="544.775391"/>
      <use xlink:href="#ArialMT-78" x="600.390625"/>
      <use xlink:href="#ArialMT-69" x="650.390625"/>
      <use xlink:href="#ArialMT-63" x="672.607422"/>
      <use xlink:href="#ArialMT-6f" x="722.607422"/>
     </g>
    </g>
    <g id="patch_78">
     <path d="M 178.003875 412.0125 
L 265.238625 412.0125 
L 265.238625 397.6125 
L 178.003875 397.6125 
z
" style="fill: #f3faf0; stroke: #000000; stroke-linejoin: miter"/>
    </g>
    <g id="text_77">
     <!-- $111,703 -->
     <g transform="translate(201.506406 407.441406) scale(0.1 -0.1)">
      <use xlink:href="#ArialMT-24"/>
      <use xlink:href="#ArialMT-31" x="55.615234"/>
      <use xlink:href="#ArialMT-31" x="103.855469"/>
      <use xlink:href="#ArialMT-31" x="152.095703"/>
      <use xlink:href="#ArialMT-2c" x="207.710938"/>
      <use xlink:href="#ArialMT-37" x="235.494141"/>
      <use xlink:href="#ArialMT-30" x="291.109375"/>
      <use xlink:href="#ArialMT-33" x="346.724609"/>
     </g>
    </g>
    <g id="patch_79">
     <path d="M 70.615125 426.4125 
L 83.961375 426.4125 
L 83.961375 412.0125 
L 70.615125 412.0125 
z
" style="fill: #ffffff; stroke: #000000; stroke-linejoin: miter"/>
    </g>
    <g id="text_78">
     <!-- 25 -->
     <g style="fill: #262626" transform="translate(71.94975 421.797656) scale(0.1 -0.1)">
      <use xlink:href="#ArialMT-32"/>
      <use xlink:href="#ArialMT-35" x="55.615234"/>
     </g>
    </g>
    <g id="patch_80">
     <path d="M 83.961375 426.4125 
L 178.003875 426.4125 
L 178.003875 412.0125 
L 83.961375 412.0125 
z
" style="fill: #ffffff; stroke: #000000; stroke-linejoin: miter"/>
    </g>
    <g id="text_79">
     <!-- puebla -->
     <g style="fill: #262626" transform="translate(115.969344 421.797656) scale(0.1 -0.1)">
      <use xlink:href="#ArialMT-70"/>
      <use xlink:href="#ArialMT-75" x="55.615234"/>
      <use xlink:href="#ArialMT-65" x="111.230469"/>
      <use xlink:href="#ArialMT-62" x="166.845703"/>
      <use xlink:href="#ArialMT-6c" x="222.460938"/>
      <use xlink:href="#ArialMT-61" x="244.677734"/>
     </g>
    </g>
    <g id="patch_81">
     <path d="M 178.003875 426.4125 
L 265.238625 426.4125 
L 265.238625 412.0125 
L 178.003875 412.0125 
z
" style="fill: #f4fbf2; stroke: #000000; stroke-linejoin: miter"/>
    </g>
    <g id="text_80">
     <!-- $94,844 -->
     <g transform="translate(203.549375 421.841406) scale(0.1 -0.1)">
      <use xlink:href="#ArialMT-24"/>
      <use xlink:href="#ArialMT-39" x="55.615234"/>
      <use xlink:href="#ArialMT-34" x="111.230469"/>
      <use xlink:href="#ArialMT-2c" x="166.845703"/>
      <use xlink:href="#ArialMT-38" x="194.628906"/>
      <use xlink:href="#ArialMT-34" x="250.244141"/>
      <use xlink:href="#ArialMT-34" x="305.859375"/>
     </g>
    </g>
    <g id="patch_82">
     <path d="M 70.615125 440.8125 
L 83.961375 440.8125 
L 83.961375 426.4125 
L 70.615125 426.4125 
z
" style="fill: #ffffff; stroke: #000000; stroke-linejoin: miter"/>
    </g>
    <g id="text_81">
     <!-- 26 -->
     <g style="fill: #262626" transform="translate(71.94975 436.197656) scale(0.1 -0.1)">
      <use xlink:href="#ArialMT-32"/>
      <use xlink:href="#ArialMT-36" x="55.615234"/>
     </g>
    </g>
    <g id="patch_83">
     <path d="M 83.961375 440.8125 
L 178.003875 440.8125 
L 178.003875 426.4125 
L 83.961375 426.4125 
z
" style="fill: #ffffff; stroke: #000000; stroke-linejoin: miter"/>
    </g>
    <g id="text_82">
     <!-- san luis potosí -->
     <g style="fill: #262626" transform="translate(99.021688 436.217188) scale(0.1 -0.1)">
      <use xlink:href="#ArialMT-73"/>
      <use xlink:href="#ArialMT-61" x="50"/>
      <use xlink:href="#ArialMT-6e" x="105.615234"/>
      <use xlink:href="#ArialMT-20" x="161.230469"/>
      <use xlink:href="#ArialMT-6c" x="189.013672"/>
      <use xlink:href="#ArialMT-75" x="211.230469"/>
      <use xlink:href="#ArialMT-69" x="266.845703"/>
      <use xlink:href="#ArialMT-73" x="289.0625"/>
      <use xlink:href="#ArialMT-20" x="339.0625"/>
      <use xlink:href="#ArialMT-70" x="366.845703"/>
      <use xlink:href="#ArialMT-6f" x="422.460938"/>
      <use xlink:href="#ArialMT-74" x="478.076172"/>
      <use xlink:href="#ArialMT-6f" x="505.859375"/>
      <use xlink:href="#ArialMT-73" x="561.474609"/>
      <use xlink:href="#ArialMT-ed" x="611.474609"/>
     </g>
    </g>
    <g id="patch_84">
     <path d="M 178.003875 440.8125 
L 265.238625 440.8125 
L 265.238625 426.4125 
L 178.003875 426.4125 
z
" style="fill: #f4fbf2; stroke: #000000; stroke-linejoin: miter"/>
    </g>
    <g id="text_83">
     <!-- $88,783 -->
     <g transform="translate(203.549375 436.241406) scale(0.1 -0.1)">
      <use xlink:href="#ArialMT-24"/>
      <use xlink:href="#ArialMT-38" x="55.615234"/>
      <use xlink:href="#ArialMT-38" x="111.230469"/>
      <use xlink:href="#ArialMT-2c" x="166.845703"/>
      <use xlink:href="#ArialMT-37" x="194.628906"/>
      <use xlink:href="#ArialMT-38" x="250.244141"/>
      <use xlink:href="#ArialMT-33" x="305.859375"/>
     </g>
    </g>
    <g id="patch_85">
     <path d="M 70.615125 455.2125 
L 83.961375 455.2125 
L 83.961375 440.8125 
L 70.615125 440.8125 
z
" style="fill: #ffffff; stroke: #000000; stroke-linejoin: miter"/>
    </g>
    <g id="text_84">
     <!-- 27 -->
     <g style="fill: #262626" transform="translate(71.94975 450.597656) scale(0.1 -0.1)">
      <use xlink:href="#ArialMT-32"/>
      <use xlink:href="#ArialMT-37" x="55.615234"/>
     </g>
    </g>
    <g id="patch_86">
     <path d="M 83.961375 455.2125 
L 178.003875 455.2125 
L 178.003875 440.8125 
L 83.961375 440.8125 
z
" style="fill: #ffffff; stroke: #000000; stroke-linejoin: miter"/>
    </g>
    <g id="text_85">
     <!-- zacatecas -->
     <g style="fill: #262626" transform="translate(108.471688 450.597656) scale(0.1 -0.1)">
      <use xlink:href="#ArialMT-7a"/>
      <use xlink:href="#ArialMT-61" x="50"/>
      <use xlink:href="#ArialMT-63" x="105.615234"/>
      <use xlink:href="#ArialMT-61" x="155.615234"/>
      <use xlink:href="#ArialMT-74" x="211.230469"/>
      <use xlink:href="#ArialMT-65" x="239.013672"/>
      <use xlink:href="#ArialMT-63" x="294.628906"/>
      <use xlink:href="#ArialMT-61" x="344.628906"/>
      <use xlink:href="#ArialMT-73" x="400.244141"/>
     </g>
    </g>
    <g id="patch_87">
     <path d="M 178.003875 455.2125 
L 265.238625 455.2125 
L 265.238625 440.8125 
L 178.003875 440.8125 
z
" style="fill: #f4fbf2; stroke: #000000; stroke-linejoin: miter"/>
    </g>
    <g id="text_86">
     <!-- $80,856 -->
     <g transform="translate(203.549375 450.641406) scale(0.1 -0.1)">
      <use xlink:href="#ArialMT-24"/>
      <use xlink:href="#ArialMT-38" x="55.615234"/>
      <use xlink:href="#ArialMT-30" x="111.230469"/>
      <use xlink:href="#ArialMT-2c" x="166.845703"/>
      <use xlink:href="#ArialMT-38" x="194.628906"/>
      <use xlink:href="#ArialMT-35" x="250.244141"/>
      <use xlink:href="#ArialMT-36" x="305.859375"/>
     </g>
    </g>
    <g id="patch_88">
     <path d="M 70.615125 469.6125 
L 83.961375 469.6125 
L 83.961375 455.2125 
L 70.615125 455.2125 
z
" style="fill: #ffffff; stroke: #000000; stroke-linejoin: miter"/>
    </g>
    <g id="text_87">
     <!-- 28 -->
     <g style="fill: #262626" transform="translate(71.94975 464.997656) scale(0.1 -0.1)">
      <use xlink:href="#ArialMT-32"/>
      <use xlink:href="#ArialMT-38" x="55.615234"/>
     </g>
    </g>
    <g id="patch_89">
     <path d="M 83.961375 469.6125 
L 178.003875 469.6125 
L 178.003875 455.2125 
L 83.961375 455.2125 
z
" style="fill: #ffffff; stroke: #000000; stroke-linejoin: miter"/>
    </g>
    <g id="text_88">
     <!-- aguascalientes -->
     <g style="fill: #262626" transform="translate(97.627938 464.939063) scale(0.1 -0.1)">
      <use xlink:href="#ArialMT-61"/>
      <use xlink:href="#ArialMT-67" x="55.615234"/>
      <use xlink:href="#ArialMT-75" x="111.230469"/>
      <use xlink:href="#ArialMT-61" x="166.845703"/>
      <use xlink:href="#ArialMT-73" x="222.460938"/>
      <use xlink:href="#ArialMT-63" x="272.460938"/>
      <use xlink:href="#ArialMT-61" x="322.460938"/>
      <use xlink:href="#ArialMT-6c" x="378.076172"/>
      <use xlink:href="#ArialMT-69" x="400.292969"/>
      <use xlink:href="#ArialMT-65" x="422.509766"/>
      <use xlink:href="#ArialMT-6e" x="478.125"/>
      <use xlink:href="#ArialMT-74" x="533.740234"/>
      <use xlink:href="#ArialMT-65" x="561.523438"/>
      <use xlink:href="#ArialMT-73" x="617.138672"/>
     </g>
    </g>
    <g id="patch_90">
     <path d="M 178.003875 469.6125 
L 265.238625 469.6125 
L 265.238625 455.2125 
L 178.003875 455.2125 
z
" style="fill: #f4fbf2; stroke: #000000; stroke-linejoin: miter"/>
    </g>
    <g id="text_89">
     <!-- $79,522 -->
     <g transform="translate(203.549375 465.041406) scale(0.1 -0.1)">
      <use xlink:href="#ArialMT-24"/>
      <use xlink:href="#ArialMT-37" x="55.615234"/>
      <use xlink:href="#ArialMT-39" x="111.230469"/>
      <use xlink:href="#ArialMT-2c" x="166.845703"/>
      <use xlink:href="#ArialMT-35" x="194.628906"/>
      <use xlink:href="#ArialMT-32" x="250.244141"/>
      <use xlink:href="#ArialMT-32" x="305.859375"/>
     </g>
    </g>
    <g id="patch_91">
     <path d="M 70.615125 484.0125 
L 83.961375 484.0125 
L 83.961375 469.6125 
L 70.615125 469.6125 
z
" style="fill: #ffffff; stroke: #000000; stroke-linejoin: miter"/>
    </g>
    <g id="text_90">
     <!-- 29 -->
     <g style="fill: #262626" transform="translate(71.94975 479.397656) scale(0.1 -0.1)">
      <use xlink:href="#ArialMT-32"/>
      <use xlink:href="#ArialMT-39" x="55.615234"/>
     </g>
    </g>
    <g id="patch_92">
     <path d="M 83.961375 484.0125 
L 178.003875 484.0125 
L 178.003875 469.6125 
L 83.961375 469.6125 
z
" style="fill: #ffffff; stroke: #000000; stroke-linejoin: miter"/>
    </g>
    <g id="text_91">
     <!-- chiapas -->
     <g style="fill: #262626" transform="translate(113.749813 479.397656) scale(0.1 -0.1)">
      <use xlink:href="#ArialMT-63"/>
      <use xlink:href="#ArialMT-68" x="50"/>
      <use xlink:href="#ArialMT-69" x="105.615234"/>
      <use xlink:href="#ArialMT-61" x="127.832031"/>
      <use xlink:href="#ArialMT-70" x="183.447266"/>
      <use xlink:href="#ArialMT-61" x="239.0625"/>
      <use xlink:href="#ArialMT-73" x="294.677734"/>
     </g>
    </g>
    <g id="patch_93">
     <path d="M 178.003875 484.0125 
L 265.238625 484.0125 
L 265.238625 469.6125 
L 178.003875 469.6125 
z
" style="fill: #f5fbf2; stroke: #000000; stroke-linejoin: miter"/>
    </g>
    <g id="text_92">
     <!-- $77,143 -->
     <g transform="translate(203.549375 479.441406) scale(0.1 -0.1)">
      <use xlink:href="#ArialMT-24"/>
      <use xlink:href="#ArialMT-37" x="55.615234"/>
      <use xlink:href="#ArialMT-37" x="111.230469"/>
      <use xlink:href="#ArialMT-2c" x="166.845703"/>
      <use xlink:href="#ArialMT-31" x="194.628906"/>
      <use xlink:href="#ArialMT-34" x="250.244141"/>
      <use xlink:href="#ArialMT-33" x="305.859375"/>
     </g>
    </g>
    <g id="patch_94">
     <path d="M 70.615125 498.4125 
L 83.961375 498.4125 
L 83.961375 484.0125 
L 70.615125 484.0125 
z
" style="fill: #ffffff; stroke: #000000; stroke-linejoin: miter"/>
    </g>
    <g id="text_93">
     <!-- 30 -->
     <g style="fill: #262626" transform="translate(71.94975 493.797656) scale(0.1 -0.1)">
      <use xlink:href="#ArialMT-33"/>
      <use xlink:href="#ArialMT-30" x="55.615234"/>
     </g>
    </g>
    <g id="patch_95">
     <path d="M 83.961375 498.4125 
L 178.003875 498.4125 
L 178.003875 484.0125 
L 83.961375 484.0125 
z
" style="fill: #ffffff; stroke: #000000; stroke-linejoin: miter"/>
    </g>
    <g id="text_94">
     <!-- durango -->
     <g style="fill: #262626" transform="translate(112.634969 493.739063) scale(0.1 -0.1)">
      <use xlink:href="#ArialMT-64"/>
      <use xlink:href="#ArialMT-75" x="55.615234"/>
      <use xlink:href="#ArialMT-72" x="111.230469"/>
      <use xlink:href="#ArialMT-61" x="144.53125"/>
      <use xlink:href="#ArialMT-6e" x="200.146484"/>
      <use xlink:href="#ArialMT-67" x="255.761719"/>
      <use xlink:href="#ArialMT-6f" x="311.376953"/>
     </g>
    </g>
    <g id="patch_96">
     <path d="M 178.003875 498.4125 
L 265.238625 498.4125 
L 265.238625 484.0125 
L 178.003875 484.0125 
z
" style="fill: #f5fbf2; stroke: #000000; stroke-linejoin: miter"/>
    </g>
    <g id="text_95">
     <!-- $65,387 -->
     <g transform="translate(203.549375 493.841406) scale(0.1 -0.1)">
      <use xlink:href="#ArialMT-24"/>
      <use xlink:href="#ArialMT-36" x="55.615234"/>
      <use xlink:href="#ArialMT-35" x="111.230469"/>
      <use xlink:href="#ArialMT-2c" x="166.845703"/>
      <use xlink:href="#ArialMT-33" x="194.628906"/>
      <use xlink:href="#ArialMT-38" x="250.244141"/>
      <use xlink:href="#ArialMT-37" x="305.859375"/>
     </g>
    </g>
    <g id="patch_97">
     <path d="M 70.615125 512.8125 
L 83.961375 512.8125 
L 83.961375 498.4125 
L 70.615125 498.4125 
z
" style="fill: #ffffff; stroke: #000000; stroke-linejoin: miter"/>
    </g>
    <g id="text_96">
     <!-- 31 -->
     <g style="fill: #262626" transform="translate(71.94975 508.197656) scale(0.1 -0.1)">
      <use xlink:href="#ArialMT-33"/>
      <use xlink:href="#ArialMT-31" x="55.615234"/>
     </g>
    </g>
    <g id="patch_98">
     <path d="M 83.961375 512.8125 
L 178.003875 512.8125 
L 178.003875 498.4125 
L 83.961375 498.4125 
z
" style="fill: #ffffff; stroke: #000000; stroke-linejoin: miter"/>
    </g>
    <g id="text_97">
     <!-- michoacán -->
     <g style="fill: #262626" transform="translate(106.8045 508.197656) scale(0.1 -0.1)">
      <use xlink:href="#ArialMT-6d"/>
      <use xlink:href="#ArialMT-69" x="83.300781"/>
      <use xlink:href="#ArialMT-63" x="105.517578"/>
      <use xlink:href="#ArialMT-68" x="155.517578"/>
      <use xlink:href="#ArialMT-6f" x="211.132812"/>
      <use xlink:href="#ArialMT-61" x="266.748047"/>
      <use xlink:href="#ArialMT-63" x="322.363281"/>
      <use xlink:href="#ArialMT-e1" x="372.363281"/>
      <use xlink:href="#ArialMT-6e" x="427.978516"/>
     </g>
    </g>
    <g id="patch_99">
     <path d="M 178.003875 512.8125 
L 265.238625 512.8125 
L 265.238625 498.4125 
L 178.003875 498.4125 
z
" style="fill: #f5fbf3; stroke: #000000; stroke-linejoin: miter"/>
    </g>
    <g id="text_98">
     <!-- $51,098 -->
     <g transform="translate(203.549375 508.241406) scale(0.1 -0.1)">
      <use xlink:href="#ArialMT-24"/>
      <use xlink:href="#ArialMT-35" x="55.615234"/>
      <use xlink:href="#ArialMT-31" x="111.230469"/>
      <use xlink:href="#ArialMT-2c" x="166.845703"/>
      <use xlink:href="#ArialMT-30" x="194.628906"/>
      <use xlink:href="#ArialMT-39" x="250.244141"/>
      <use xlink:href="#ArialMT-38" x="305.859375"/>
     </g>
    </g>
    <g id="patch_100">
     <path d="M 70.615125 527.2125 
L 83.961375 527.2125 
L 83.961375 512.8125 
L 70.615125 512.8125 
z
" style="fill: #ffffff; stroke: #000000; stroke-linejoin: miter"/>
    </g>
    <g id="text_99">
     <!-- 32 -->
     <g style="fill: #262626" transform="translate(71.94975 522.597656) scale(0.1 -0.1)">
      <use xlink:href="#ArialMT-33"/>
      <use xlink:href="#ArialMT-32" x="55.615234"/>
     </g>
    </g>
    <g id="patch_101">
     <path d="M 83.961375 527.2125 
L 178.003875 527.2125 
L 178.003875 512.8125 
L 83.961375 512.8125 
z
" style="fill: #ffffff; stroke: #000000; stroke-linejoin: miter"/>
    </g>
    <g id="text_100">
     <!-- hidalgo -->
     <g style="fill: #262626" transform="translate(114.858406 522.539063) scale(0.1 -0.1)">
      <use xlink:href="#ArialMT-68"/>
      <use xlink:href="#ArialMT-69" x="55.615234"/>
      <use xlink:href="#ArialMT-64" x="77.832031"/>
      <use xlink:href="#ArialMT-61" x="133.447266"/>
      <use xlink:href="#ArialMT-6c" x="189.0625"/>
      <use xlink:href="#ArialMT-67" x="211.279297"/>
      <use xlink:href="#ArialMT-6f" x="266.894531"/>
     </g>
    </g>
    <g id="patch_102">
     <path d="M 178.003875 527.2125 
L 265.238625 527.2125 
L 265.238625 512.8125 
L 178.003875 512.8125 
z
" style="fill: #f6fcf4; stroke: #000000; stroke-linejoin: miter"/>
    </g>
    <g id="text_101">
     <!-- $42,535 -->
     <g transform="translate(203.549375 522.641406) scale(0.1 -0.1)">
      <use xlink:href="#ArialMT-24"/>
      <use xlink:href="#ArialMT-34" x="55.615234"/>
      <use xlink:href="#ArialMT-32" x="111.230469"/>
      <use xlink:href="#ArialMT-2c" x="166.845703"/>
      <use xlink:href="#ArialMT-35" x="194.628906"/>
      <use xlink:href="#ArialMT-33" x="250.244141"/>
      <use xlink:href="#ArialMT-35" x="305.859375"/>
     </g>
    </g>
    <g id="patch_103">
     <path d="M 70.615125 541.6125 
L 83.961375 541.6125 
L 83.961375 527.2125 
L 70.615125 527.2125 
z
" style="fill: #ffffff; stroke: #000000; stroke-linejoin: miter"/>
    </g>
    <g id="text_102">
     <!-- 33 -->
     <g style="fill: #262626" transform="translate(71.94975 536.997656) scale(0.1 -0.1)">
      <use xlink:href="#ArialMT-33"/>
      <use xlink:href="#ArialMT-33" x="55.615234"/>
     </g>
    </g>
    <g id="patch_104">
     <path d="M 83.961375 541.6125 
L 178.003875 541.6125 
L 178.003875 527.2125 
L 83.961375 527.2125 
z
" style="fill: #ffffff; stroke: #000000; stroke-linejoin: miter"/>
    </g>
    <g id="text_103">
     <!-- michoacán -->
     <g style="fill: #262626" transform="translate(106.8045 536.997656) scale(0.1 -0.1)">
      <use xlink:href="#ArialMT-6d"/>
      <use xlink:href="#ArialMT-69" x="83.300781"/>
      <use xlink:href="#ArialMT-63" x="105.517578"/>
      <use xlink:href="#ArialMT-68" x="155.517578"/>
      <use xlink:href="#ArialMT-6f" x="211.132812"/>
      <use xlink:href="#ArialMT-61" x="266.748047"/>
      <use xlink:href="#ArialMT-63" x="322.363281"/>
      <use xlink:href="#ArialMT-e1" x="372.363281"/>
      <use xlink:href="#ArialMT-6e" x="427.978516"/>
     </g>
    </g>
    <g id="patch_105">
     <path d="M 178.003875 541.6125 
L 265.238625 541.6125 
L 265.238625 527.2125 
L 178.003875 527.2125 
z
" style="fill: #f6fcf4; stroke: #000000; stroke-linejoin: miter"/>
    </g>
    <g id="text_104">
     <!-- $19,944 -->
     <g transform="translate(203.549375 537.041406) scale(0.1 -0.1)">
      <use xlink:href="#ArialMT-24"/>
      <use xlink:href="#ArialMT-31" x="55.615234"/>
      <use xlink:href="#ArialMT-39" x="111.230469"/>
      <use xlink:href="#ArialMT-2c" x="166.845703"/>
      <use xlink:href="#ArialMT-39" x="194.628906"/>
      <use xlink:href="#ArialMT-34" x="250.244141"/>
      <use xlink:href="#ArialMT-34" x="305.859375"/>
     </g>
    </g>
    <g id="patch_106">
     <path d="M 70.615125 556.0125 
L 83.961375 556.0125 
L 83.961375 541.6125 
L 70.615125 541.6125 
z
" style="fill: #ffffff; stroke: #000000; stroke-linejoin: miter"/>
    </g>
    <g id="text_105">
     <!-- 34 -->
     <g style="fill: #262626" transform="translate(71.94975 551.397656) scale(0.1 -0.1)">
      <use xlink:href="#ArialMT-33"/>
      <use xlink:href="#ArialMT-34" x="55.615234"/>
     </g>
    </g>
    <g id="patch_107">
     <path d="M 83.961375 556.0125 
L 178.003875 556.0125 
L 178.003875 541.6125 
L 83.961375 541.6125 
z
" style="fill: #ffffff; stroke: #000000; stroke-linejoin: miter"/>
    </g>
    <g id="text_106">
     <!-- ciudad de méxico -->
     <g style="fill: #262626" transform="translate(92.074031 551.397656) scale(0.1 -0.1)">
      <use xlink:href="#ArialMT-63"/>
      <use xlink:href="#ArialMT-69" x="50"/>
      <use xlink:href="#ArialMT-75" x="72.216797"/>
      <use xlink:href="#ArialMT-64" x="127.832031"/>
      <use xlink:href="#ArialMT-61" x="183.447266"/>
      <use xlink:href="#ArialMT-64" x="239.0625"/>
      <use xlink:href="#ArialMT-20" x="294.677734"/>
      <use xlink:href="#ArialMT-64" x="322.460938"/>
      <use xlink:href="#ArialMT-65" x="378.076172"/>
      <use xlink:href="#ArialMT-20" x="433.691406"/>
      <use xlink:href="#ArialMT-6d" x="461.474609"/>
      <use xlink:href="#ArialMT-e9" x="544.775391"/>
      <use xlink:href="#ArialMT-78" x="600.390625"/>
      <use xlink:href="#ArialMT-69" x="650.390625"/>
      <use xlink:href="#ArialMT-63" x="672.607422"/>
      <use xlink:href="#ArialMT-6f" x="722.607422"/>
     </g>
    </g>
    <g id="patch_108">
     <path d="M 178.003875 556.0125 
L 265.238625 556.0125 
L 265.238625 541.6125 
L 178.003875 541.6125 
z
" style="fill: #f7fcf5; stroke: #000000; stroke-linejoin: miter"/>
    </g>
    <g id="text_107">
     <!-- $0 -->
     <g transform="translate(216.060313 551.397656) scale(0.1 -0.1)">
      <use xlink:href="#ArialMT-24"/>
      <use xlink:href="#ArialMT-30" x="55.615234"/>
     </g>
    </g>
   </g>
   <g id="text_108">
    <!-- Venta por Estados -->
    <g style="fill: #262626" transform="translate(104.80625 18.6525) scale(0.16 -0.16)">
     <defs>
      <path id="Arial-BoldMT-56" d="M 1634 0 
L -3 4581 
L 1000 4581 
L 2159 1191 
L 3281 4581 
L 4263 4581 
L 2622 0 
L 1634 0 
z
" transform="scale(0.015625)"/>
      <path id="Arial-BoldMT-20" transform="scale(0.015625)"/>
      <path id="Arial-BoldMT-70" d="M 434 3319 
L 1253 3319 
L 1253 2831 
Q 1413 3081 1684 3237 
Q 1956 3394 2288 3394 
Q 2866 3394 3269 2941 
Q 3672 2488 3672 1678 
Q 3672 847 3265 386 
Q 2859 -75 2281 -75 
Q 2006 -75 1782 34 
Q 1559 144 1313 409 
L 1313 -1263 
L 434 -1263 
L 434 3319 
z
M 1303 1716 
Q 1303 1156 1525 889 
Q 1747 622 2066 622 
Q 2372 622 2575 867 
Q 2778 1113 2778 1672 
Q 2778 2194 2568 2447 
Q 2359 2700 2050 2700 
Q 1728 2700 1515 2451 
Q 1303 2203 1303 1716 
z
" transform="scale(0.015625)"/>
      <path id="Arial-BoldMT-72" d="M 1300 0 
L 422 0 
L 422 3319 
L 1238 3319 
L 1238 2847 
Q 1447 3181 1614 3287 
Q 1781 3394 1994 3394 
Q 2294 3394 2572 3228 
L 2300 2463 
Q 2078 2606 1888 2606 
Q 1703 2606 1575 2504 
Q 1447 2403 1373 2137 
Q 1300 1872 1300 1025 
L 1300 0 
z
" transform="scale(0.015625)"/>
     </defs>
     <use xlink:href="#Arial-BoldMT-56"/>
     <use xlink:href="#Arial-BoldMT-65" x="61.199219"/>
     <use xlink:href="#Arial-BoldMT-6e" x="116.814453"/>
     <use xlink:href="#Arial-BoldMT-74" x="177.898438"/>
     <use xlink:href="#Arial-BoldMT-61" x="211.199219"/>
     <use xlink:href="#Arial-BoldMT-20" x="266.814453"/>
     <use xlink:href="#Arial-BoldMT-70" x="294.597656"/>
     <use xlink:href="#Arial-BoldMT-6f" x="355.681641"/>
     <use xlink:href="#Arial-BoldMT-72" x="416.765625"/>
     <use xlink:href="#Arial-BoldMT-20" x="455.681641"/>
     <use xlink:href="#Arial-BoldMT-45" x="483.464844"/>
     <use xlink:href="#Arial-BoldMT-73" x="550.164062"/>
     <use xlink:href="#Arial-BoldMT-74" x="605.779297"/>
     <use xlink:href="#Arial-BoldMT-61" x="639.080078"/>
     <use xlink:href="#Arial-BoldMT-64" x="694.695312"/>
     <use xlink:href="#Arial-BoldMT-6f" x="755.779297"/>
     <use xlink:href="#Arial-BoldMT-73" x="816.863281"/>
    </g>
   </g>
  </g>
 </g>
</svg>
